<svg width="24" height="24" viewBox="0 0 24 24" fill="none" xmlns="http://www.w3.org/2000/svg">
<path d="M8.28002 2.50015C8.91002 2.51931 9.52002 2.62931 10.111 2.83031H10.17C10.21 2.84931 10.24 2.87031 10.26 2.88931C10.481 2.96031 10.69 3.04031 10.89 3.15031L11.27 3.32031C11.42 3.40031 11.6 3.54931 11.7 3.61031C11.8 3.66931 11.91 3.73031 12 3.79931C13.111 2.95031 14.46 2.49031 15.85 2.50015C16.481 2.50015 17.111 2.58931 17.71 2.79031C21.401 3.99031 22.731 8.04031 21.62 11.5803C20.99 13.3893 19.96 15.0403 18.611 16.3893C16.68 18.2593 14.561 19.9193 12.28 21.3493L12.03 21.5003L11.77 21.3393C9.48102 19.9193 7.35002 18.2593 5.40102 16.3793C4.06102 15.0303 3.03002 13.3893 2.39002 11.5803C1.26002 8.04031 2.59002 3.99031 6.32102 2.76931C6.61102 2.66931 6.91002 2.59931 7.21002 2.56031H7.33002C7.61102 2.51931 7.89002 2.50015 8.17002 2.50015H8.28002ZM17.19 5.66031C16.78 5.51931 16.33 5.74031 16.18 6.16031C16.04 6.58031 16.26 7.04031 16.68 7.18931C17.321 7.42931 17.75 8.06031 17.75 8.75931V8.79031C17.731 9.01931 17.8 9.24031 17.94 9.41031C18.08 9.58031 18.29 9.67931 18.51 9.70031C18.92 9.68931 19.27 9.36031 19.3 8.93931V8.82031C19.33 7.41931 18.481 6.15031 17.19 5.66031Z" fill="white"/>
</svg>
