<svg width="28" height="30" viewBox="0 0 28 30" fill="none" xmlns="http://www.w3.org/2000/svg">
<g filter="url(#filter0_d_326_91)">
<path d="M11.1348 20.7733V17.7156C11.1348 16.9351 11.7722 16.3023 12.5584 16.3023H15.4326C15.8102 16.3023 16.1723 16.4512 16.4393 16.7163C16.7063 16.9813 16.8563 17.3408 16.8563 17.7156V20.7733C16.8539 21.0978 16.9821 21.4099 17.2124 21.6402C17.4427 21.8705 17.756 22 18.0829 22H20.0438C20.9596 22.0023 21.8388 21.6428 22.4872 21.0008C23.1356 20.3588 23.5 19.487 23.5 18.5778V9.86686C23.5 9.13246 23.1721 8.43584 22.6046 7.96467L15.934 2.67587C14.7737 1.74856 13.1111 1.7785 11.9854 2.74698L5.46701 7.96467C4.87274 8.42195 4.51755 9.12064 4.5 9.86686V18.5689C4.5 20.4639 6.04738 22 7.95617 22H9.87229C10.5512 22 11.103 21.4562 11.1079 20.7822L11.1348 20.7733Z" fill="white"/>
</g>
<defs>
<filter id="filter0_d_326_91" x="-2" y="0" width="32" height="32" filterUnits="userSpaceOnUse" color-interpolation-filters="sRGB">
<feFlood flood-opacity="0" result="BackgroundImageFix"/>
<feColorMatrix in="SourceAlpha" type="matrix" values="0 0 0 0 0 0 0 0 0 0 0 0 0 0 0 0 0 0 127 0" result="hardAlpha"/>
<feOffset dy="4"/>
<feGaussianBlur stdDeviation="2"/>
<feComposite in2="hardAlpha" operator="out"/>
<feColorMatrix type="matrix" values="0 0 0 0 0 0 0 0 0 0 0 0 0 0 0 0 0 0 0.25 0"/>
<feBlend mode="normal" in2="BackgroundImageFix" result="effect1_dropShadow_326_91"/>
<feBlend mode="normal" in="SourceGraphic" in2="effect1_dropShadow_326_91" result="shape"/>
</filter>
</defs>
</svg>
