<svg width="267" height="52" viewBox="0 0 267 52" fill="none" xmlns="http://www.w3.org/2000/svg">
<path d="M18.128 22.224C18.128 20.048 16.4 18.256 14.288 18.256H13.808H10.416C10.192 18.256 10 18.448 10 18.672V33.584C10 33.808 10.192 34 10.416 34C10.672 34 10.864 33.808 10.864 33.584V19.088H13.808H14.288C15.952 19.088 17.264 20.496 17.264 22.224V24.016C17.264 25.744 15.952 27.152 14.288 27.152H12.848C12.624 27.152 12.432 27.344 12.432 27.6C12.432 27.824 12.624 28.016 12.848 28.016H14.288C16.4 28.016 18.128 26.224 18.128 24.016V22.224ZM42.3203 18.256C42.0963 18.256 41.9043 18.448 41.9043 18.672V26.288H39.0883C38.8643 26.288 38.6723 26.48 38.6723 26.704V33.136H37.5203V18.672C37.5203 18.448 37.3283 18.256 37.0723 18.256C36.8483 18.256 36.6562 18.448 36.6562 18.672V33.584C36.6562 33.808 36.8483 34 37.0723 34H39.0883C39.3443 34 39.5363 33.808 39.5363 33.584V27.12H42.3203C42.5763 27.12 42.7683 26.928 42.7683 26.704V19.088H43.9203V33.584C43.9203 33.808 44.1123 34 44.3363 34C44.5923 34 44.7843 33.808 44.7843 33.584V18.672C44.7843 18.448 44.5923 18.256 44.3363 18.256H42.3203ZM63.6325 34C63.6645 34 63.6965 34 63.7285 34C63.9205 34 64.1125 33.872 64.1445 33.68L65.0085 29.744H68.4005C68.5285 29.744 68.6565 29.68 68.7205 29.584C68.8165 29.488 68.8485 29.36 68.8165 29.232L68.5605 27.504C68.5285 27.312 68.3365 27.152 68.1445 27.152H65.5205L66.9605 19.12H68.1765L70.8005 33.648C70.8325 33.872 71.0565 34.032 71.2805 34C71.5045 33.968 71.6645 33.744 71.6325 33.488L68.9445 18.608C68.9125 18.416 68.7525 18.256 68.5285 18.256H66.6085C66.4165 18.256 66.2245 18.416 66.1925 18.608L64.5925 27.504C64.5605 27.632 64.5925 27.76 64.6885 27.856C64.7845 27.952 64.8805 28.016 65.0085 28.016H67.7605L67.8885 28.88H64.6885C64.4645 28.88 64.3045 29.008 64.2725 29.2L63.3125 33.488C63.2805 33.712 63.4085 33.936 63.6325 34ZM94.2568 27.408C96.3688 27.408 98.0968 25.616 98.0968 23.44V22.224C98.0968 20.048 96.3688 18.256 94.2568 18.256H90.3848C90.1608 18.256 89.9688 18.448 89.9688 18.672V33.584C89.9688 33.808 90.1608 34 90.3848 34C90.6408 34 90.8328 33.808 90.8328 33.584V19.088H94.2568C95.9208 19.088 97.2328 20.496 97.2328 22.224V23.44C97.2328 25.168 95.9208 26.576 94.2568 26.576H92.4328C92.1768 26.576 91.9848 26.768 91.9848 26.992V28.72C91.9848 28.944 92.1768 29.136 92.4328 29.136H95.3448C96.4008 29.136 97.2328 30.032 97.2328 31.152V33.584C97.2328 33.808 97.4248 34 97.6488 34C97.9048 34 98.0968 33.808 98.0968 33.584V31.152C98.0968 29.584 96.8488 28.304 95.3448 28.304H92.8488V27.408H94.2568ZM117.041 25.808H121.201V26.768H117.073C116.849 26.768 116.657 26.96 116.657 27.216V33.584C116.657 33.808 116.849 34 117.073 34H124.305C124.561 34 124.753 33.808 124.753 33.584C124.753 33.328 124.561 33.136 124.305 33.136H117.521V27.632H121.649C121.873 27.632 122.065 27.44 122.065 27.216V25.36C122.065 25.136 121.873 24.944 121.649 24.944H117.489V19.088H124.305C124.561 19.088 124.753 18.896 124.753 18.672C124.753 18.448 124.561 18.256 124.305 18.256H117.041C116.817 18.256 116.625 18.448 116.625 18.672V25.36C116.625 25.616 116.817 25.808 117.041 25.808ZM150.104 19.088H156.952V20.272H153.752C153.496 20.272 153.336 20.464 153.336 20.688V33.584C153.336 33.808 153.496 34 153.752 34C153.976 34 154.168 33.808 154.168 33.584V21.136H157.368C157.624 21.136 157.816 20.944 157.816 20.688V18.672C157.816 18.448 157.624 18.256 157.368 18.256H150.104C149.88 18.256 149.688 18.448 149.688 18.672C149.688 18.896 149.88 19.088 150.104 19.088ZM176.76 25.808H180.92V26.768H176.792C176.568 26.768 176.376 26.96 176.376 27.216V33.584C176.376 33.808 176.568 34 176.792 34H184.024C184.28 34 184.472 33.808 184.472 33.584C184.472 33.328 184.28 33.136 184.024 33.136H177.24V27.632H181.368C181.592 27.632 181.784 27.44 181.784 27.216V25.36C181.784 25.136 181.592 24.944 181.368 24.944H177.208V19.088H184.024C184.28 19.088 184.472 18.896 184.472 18.672C184.472 18.448 184.28 18.256 184.024 18.256H176.76C176.536 18.256 176.344 18.448 176.344 18.672V25.36C176.344 25.616 176.536 25.808 176.76 25.808ZM206.808 34H207.288C209.4 34 211.128 32.208 211.128 30.032C211.128 29.776 210.936 29.584 210.68 29.584C210.456 29.584 210.264 29.776 210.264 30.032C210.264 31.76 208.952 33.136 207.288 33.136H206.808C205.176 33.136 203.864 31.76 203.864 30.032V22.224C203.864 20.496 205.176 19.088 206.808 19.088H207.288C208.952 19.088 210.264 20.496 210.264 22.224C210.264 22.48 210.456 22.64 210.68 22.64C210.936 22.64 211.128 22.48 211.128 22.224C211.128 20.048 209.4 18.256 207.288 18.256H206.808C204.696 18.256 203 20.048 203 22.224V30.032C203 32.208 204.696 34 206.808 34ZM235.32 18.256C235.096 18.256 234.904 18.448 234.904 18.672V26.288H232.088C231.864 26.288 231.672 26.48 231.672 26.704V33.136H230.52V18.672C230.52 18.448 230.328 18.256 230.072 18.256C229.848 18.256 229.656 18.448 229.656 18.672V33.584C229.656 33.808 229.848 34 230.072 34H232.088C232.344 34 232.536 33.808 232.536 33.584V27.12H235.32C235.576 27.12 235.768 26.928 235.768 26.704V19.088H236.92V33.584C236.92 33.808 237.112 34 237.336 34C237.592 34 237.784 33.808 237.784 33.584V18.672C237.784 18.448 237.592 18.256 237.336 18.256H235.32Z" fill="white"/>
</svg>
