<svg width="53" height="53" viewBox="0 0 53 53" fill="none" xmlns="http://www.w3.org/2000/svg">
<g clip-path="url(#clip0_501_4730)">
<path d="M26.513 52.2838C40.7717 52.2838 52.3306 40.7248 52.3306 26.4661C52.3306 12.2074 40.7717 0.648438 26.513 0.648438C12.2543 0.648438 0.695312 12.2074 0.695312 26.4661C0.695312 40.7248 12.2543 52.2838 26.513 52.2838Z" fill="#C1E8F7"/>
<path d="M21.9762 31.05C21.9762 31.05 21.668 32.5823 22.6382 33.9307C23.4842 35.1063 24.7896 37.2505 25.4185 38.3706L25.4187 38.3705C25.4488 38.422 25.4778 38.4768 25.5073 38.5301C25.5198 38.5529 25.5346 38.5791 25.5464 38.6006C25.5658 38.6366 25.5853 38.6724 25.6044 38.7092C25.6826 38.8559 25.7362 38.964 25.7615 39.0271C26.3007 40.1698 26.6864 41.5203 26.8361 42.0839C26.9409 41.6686 27.1052 41.093 27.347 40.4343C27.5084 39.974 27.6992 39.4838 27.9147 39.0271C27.94 38.964 27.9936 38.856 28.0719 38.7092C28.091 38.6724 28.1105 38.6366 28.1299 38.6006C28.1417 38.5791 28.1564 38.5529 28.1689 38.5301C28.1985 38.4768 28.2274 38.422 28.2576 38.3705L28.2578 38.3706C28.8867 37.2505 30.192 35.1063 31.038 33.9307C32.0082 32.5823 31.7 31.05 31.7 31.05L31.5513 30.5447C31.3965 30.0578 31.3176 29.5848 31.2787 29.1562C29.5228 30.6466 28.8981 31.1509 26.7398 31.0766C24.6444 31.1487 23.9935 30.6745 22.3507 29.2832C22.3161 29.6043 22.2584 29.9474 22.1627 30.301C22.1754 30.2963 22.188 30.2919 22.2007 30.287L21.9762 31.05Z" fill="#F4CCAF"/>
<path d="M20.0531 37.0757C20.0876 35.5227 20.308 33.4962 20.4979 32.4062C20.0167 32.7045 19.412 32.9881 18.7344 33.2711C18.7347 33.272 18.7362 33.2722 18.7365 33.2731C19.0656 34.281 19.5172 35.6067 20.0531 37.0757Z" fill="#F4F4F4"/>
<path d="M26.7707 42.3553L26.7702 42.3571C26.7702 42.3571 26.7712 42.353 26.7714 42.3522C26.7841 42.2973 26.7984 42.2375 26.8141 42.1734C26.6533 41.8635 26.2606 41.1751 25.5184 40.2494C24.7475 39.2878 24.266 39.1758 24.266 39.1758C24.266 39.1758 23.765 38.9254 24.3554 38.6211L24.7356 38.4324C22.5496 37.194 21.5645 38.5377 20.7812 39.0144C22.4526 43.3476 24.6637 48.2353 26.6493 50.0216C26.6609 50.032 26.672 50.0569 26.6829 50.0883V42.7732C26.6829 42.7732 26.7096 42.6198 26.7707 42.3553Z" fill="#F4F4F4"/>
<path d="M33.5955 36.3827C34.033 35.1631 34.4052 34.0657 34.6874 33.2018C34.1217 32.9616 33.6118 32.72 33.1875 32.4688C33.3475 33.4128 33.5259 34.9928 33.5955 36.3827Z" fill="#EAEAEA"/>
<path d="M26.838 42.0948C26.9272 41.7583 27.1025 41.1342 27.3468 40.4375C27.1051 41.0963 26.9407 41.6719 26.8359 42.0872C26.8367 42.0899 26.8373 42.0922 26.838 42.0948Z" fill="#EAEAEA"/>
<path d="M28.9365 38.4325L29.3167 38.6212C29.9071 38.9255 29.4062 39.1759 29.4062 39.1759C29.4062 39.1759 29.0603 39.4145 28.1537 40.2495C27.3456 40.9938 26.9833 41.7577 26.8433 42.1277C26.8811 42.2712 26.902 42.3572 26.902 42.3572C26.902 42.3572 26.8752 42.2974 26.82 42.1904C26.7841 42.2915 26.7686 42.351 26.7675 42.3554C26.7064 42.6199 26.6797 42.7733 26.6797 42.7733V50.0884C26.6876 50.1114 26.695 50.1452 26.7025 50.1789C26.7247 50.0527 26.7486 49.9744 26.7746 49.9509C28.772 48.1539 30.9976 43.2187 32.6723 38.8665C31.9191 38.3156 30.925 37.306 28.9365 38.4325Z" fill="#EAEAEA"/>
<path d="M26.818 42.1751C26.8174 42.1741 26.8167 42.1728 26.8162 42.1719C26.8004 42.236 26.7861 42.2958 26.7734 42.3507C26.7756 42.3415 26.7902 42.2816 26.818 42.1751Z" fill="#EAEAEA"/>
<path d="M10.223 36.3281C10.1102 36.335 9.99287 36.351 9.86675 36.3847C8.61321 36.7192 7.89726 40.0048 7.03125 43.4058C8.84951 45.4953 10.9959 47.2894 13.3938 48.7068C13.3922 47.6989 13.352 46.7772 13.2205 46.0504C12.804 43.7502 10.1165 37.1385 10.223 36.3281Z" fill="#F4F4F4"/>
<path d="M43.5701 36.3846C43.4404 36.35 43.3201 36.3344 43.2044 36.3281C43.175 37.3951 40.6098 43.7369 40.2037 45.9797C40.0797 46.6645 40.0374 47.5237 40.0312 48.4635C42.4105 46.9975 44.5332 45.1566 46.3182 43.0226C45.5379 39.75 44.777 36.7066 43.5701 36.3846Z" fill="#F4F4F4"/>
<path d="M43.2035 36.3297C43.2058 36.2457 43.1943 36.1905 43.1629 36.1765C42.7323 35.9844 34.8491 32.7058 34.6881 33.1989C34.6875 33.2005 34.687 33.2024 34.6864 33.204C34.4042 34.0679 34.0321 35.1653 33.5946 36.3848C33.6714 37.9189 33.6157 39.2182 33.2555 39.1642C33.0696 39.1363 32.8798 39.0176 32.6729 38.8662C30.9982 43.2184 28.7726 48.1536 26.7752 49.9507C26.7492 49.9741 26.7253 50.0525 26.7031 50.1786C26.7719 50.4873 26.8241 51.2357 26.8636 52.2806C31.6877 52.2151 36.1918 50.8304 40.0304 48.4651C40.0365 47.5253 40.0789 46.6661 40.2029 45.9813C40.6089 43.7384 43.1742 37.3966 43.2035 36.3297Z" fill="#FF9325"/>
<path d="M26.7416 31.0786C28.9 31.1528 29.5247 30.6485 31.2806 29.1582C31.3017 29.1402 31.321 29.124 31.3425 29.1057C33.2377 27.4969 32.2829 24.1393 33.4335 24.3491C34.5636 24.5553 35.847 21.4938 35.0363 20.7222C34.6425 20.6846 34.3184 21.0575 34.0155 21.5669C33.6755 22.1387 33.8076 23.0211 33.4695 23.0005C33.0597 21.6117 33.1004 20.3574 33.1777 18.9531C31.2968 19.4432 28.9839 19.8296 26.9075 19.8296C25.0323 19.8296 22.91 19.497 21.102 19.0578C21.1311 19.3799 21.1507 19.6926 21.1675 19.8653C21.2594 20.8114 20.6697 21.9764 20.4522 22.2002C20.311 22.3454 19.9661 22.9506 19.7601 23.0009C19.591 23.0422 19.7058 22.0541 19.141 21.2015C18.6948 20.5281 18.4882 20.6767 18.4882 20.6767C17.5841 21.3755 18.8991 24.559 20.0498 24.3491C21.2004 24.1393 20.2456 27.4969 22.1407 29.1057C22.2143 29.1681 22.2828 29.2261 22.3526 29.2852C23.9954 30.6764 24.6463 31.1506 26.7416 31.0786Z" fill="#FCD4B5"/>
<path d="M33.175 18.9505C33.0977 20.3547 33.057 21.6091 33.4668 22.9979C33.8049 23.0184 33.6728 22.136 34.0128 21.5643C34.3157 21.0548 34.6398 20.682 35.0336 20.7196C35.0818 20.724 35.1306 20.7321 35.181 20.7496C35.5408 19.9853 35.777 19.0377 35.881 18.0469C35.2118 18.3464 34.2675 18.6658 33.175 18.9505Z" fill="#554C44"/>
<path d="M19.139 21.2048C19.7038 22.0574 19.589 23.0455 19.7582 23.0042C19.9641 22.9538 20.309 22.3487 20.4502 22.2034C20.6677 21.9797 21.2574 20.8147 21.1655 19.8685C21.1487 19.6958 21.1292 19.3831 21.1 19.0611C19.7995 18.7451 18.6633 18.3741 17.8984 18.0312C17.9037 18.0967 17.9076 18.16 17.9144 18.2281C17.9584 18.667 18.225 20.2851 18.4862 20.68C18.4862 20.68 18.6928 20.5313 19.139 21.2048Z" fill="#554C44"/>
<path d="M28.2031 18.2586C29.5282 18.1659 31.5395 17.9971 32.6233 17.7666C34.8024 17.3031 35.8858 16.9715 36.4211 16.8966C36.4975 16.865 36.5375 16.8465 36.5375 16.8465C36.5375 14.2212 35.9413 9.50232 32.0166 7.3125C31.7558 7.74968 28.4318 13.4137 28.2031 18.2586Z" fill="#FFC211"/>
<path d="M21.1876 17.7666C22.2715 17.9971 24.2828 18.166 25.6079 18.2586C25.3791 13.4137 22.055 7.74968 21.7944 7.3125C17.8696 9.50232 17.2734 14.2212 17.2734 16.8465C17.2734 16.8465 17.3134 16.865 17.3898 16.8966C17.9252 16.9715 19.0085 17.3031 21.1876 17.7666Z" fill="#FFC211"/>
<path d="M21.1012 19.0581C22.9092 19.4973 25.0315 19.8298 26.9067 19.8298C28.9831 19.8298 31.296 19.4435 33.1769 18.9534C34.2694 18.6687 35.2138 18.3493 35.8829 18.0498C36.5384 17.7564 36.9306 17.4823 36.9306 17.2799C36.9306 16.9385 36.8542 16.8325 36.4227 16.8929C35.8873 16.9678 34.8039 17.2994 32.6249 17.7629C31.541 17.9934 29.5297 18.1622 28.2047 18.2549C28.4333 13.4099 31.7574 7.74595 32.0181 7.30877C32.0287 7.29095 32.0361 7.27867 32.0361 7.27867C30.9028 6.13288 28.6745 5.45157 26.7408 5.46908C24.9025 5.4857 22.8175 6.22418 21.7773 7.27867C21.7773 7.27867 21.7846 7.29087 21.7953 7.30877C22.0559 7.74595 25.38 13.4099 25.6088 18.2549C24.2837 18.1623 22.2724 17.9934 21.1885 17.7629C19.0094 17.2994 17.9261 16.9678 17.3907 16.8929C16.9592 16.8325 16.8828 16.9385 16.8828 17.2799C16.8828 17.4775 17.2634 17.7431 17.8996 18.0283C18.6645 18.3711 19.8007 18.7421 21.1012 19.0581Z" fill="#FFB21D"/>
<path d="M26.7032 50.1776C26.6958 50.144 26.6883 50.1101 26.6804 50.0871C26.6695 50.0557 26.6584 50.0308 26.6468 50.0204C24.6613 48.2341 22.4501 43.3464 20.7788 39.0133C20.6538 39.0894 20.5335 39.1453 20.4148 39.1631C20.11 39.2089 20.0236 38.2851 20.0506 37.0713C19.5146 35.6023 19.0631 34.2766 18.7339 33.2687C18.7336 33.2678 18.7321 33.2675 18.7318 33.2667C18.5441 32.7874 10.689 36.0544 10.2592 36.2463C10.2381 36.2557 10.2273 36.2867 10.2218 36.3286C10.1153 37.139 12.8028 43.7506 13.2193 46.0509C13.3508 46.7777 13.391 47.6993 13.3926 48.7073C17.237 50.9798 21.7186 52.2885 26.5078 52.2885C26.6271 52.2885 26.7447 52.2811 26.8637 52.2795C26.8242 51.2347 26.772 50.4863 26.7032 50.1776Z" fill="#FFA027"/>
<path d="M20.0515 37.0718C20.0245 38.2856 20.111 39.2094 20.4157 39.1636C20.5344 39.1458 20.6548 39.0899 20.7797 39.0138C21.563 38.537 22.5481 37.1933 24.7341 38.4317L24.3539 38.6205C23.7635 38.9247 24.2645 39.1752 24.2645 39.1752C24.2645 39.1752 24.746 39.2871 25.5169 40.2487C26.2591 41.1744 26.6518 41.8628 26.8126 42.1727C26.8132 42.1737 26.8139 42.175 26.8144 42.1759C26.7867 42.2825 26.7721 42.3424 26.7699 42.3516C26.7697 42.3523 26.7687 42.3564 26.7687 42.3564L26.7692 42.3546C26.7703 42.3503 26.7858 42.2907 26.8217 42.1896C26.8769 42.2966 26.9036 42.3564 26.9036 42.3564C26.9036 42.3564 26.8828 42.2705 26.8449 42.1269C26.985 41.7569 27.3473 40.993 28.1553 40.2487C29.0619 39.4137 29.4078 39.1752 29.4078 39.1752C29.4078 39.1752 29.9088 38.9247 29.3184 38.6205L28.9382 38.4317C30.9267 37.3052 31.9208 38.3148 32.674 38.8657C32.8809 39.0171 33.0706 39.1358 33.2566 39.1637C33.6168 39.2178 33.6725 37.9184 33.5956 36.3843C33.526 34.9945 33.3476 33.4145 33.1876 32.4704C33.1449 32.2181 33.1034 32.0089 33.0658 31.8636C32.7317 30.5753 32.0939 30.5276 31.4736 30.2891L31.5494 30.5468L31.698 31.052C31.698 31.052 32.0062 32.5843 31.036 33.9328C30.1901 35.1084 28.8847 37.2526 28.2559 38.3726L28.2556 38.3726C28.2254 38.424 28.1965 38.4788 28.167 38.5322C28.1545 38.555 28.1397 38.5811 28.1279 38.6027C28.1085 38.6387 28.089 38.6744 28.07 38.7113C27.9916 38.858 27.938 38.9661 27.9128 39.0292C27.6973 39.4858 27.5064 39.976 27.345 40.4363C27.1007 41.133 26.9254 41.7571 26.8362 42.0936C26.8354 42.091 26.8349 42.0887 26.8341 42.086C26.6844 41.5223 26.2987 40.1718 25.7596 39.0292C25.7343 38.9661 25.6807 38.858 25.6024 38.7113C25.5833 38.6744 25.5638 38.6387 25.5444 38.6027C25.5326 38.5811 25.5179 38.555 25.5054 38.5322C25.4759 38.4788 25.4469 38.424 25.4167 38.3726L25.4165 38.3726C24.7876 37.2526 23.4822 35.1084 22.6363 33.9328C21.666 32.5843 21.9743 31.052 21.9743 31.052L22.1987 30.2891C22.1861 30.2939 22.1734 30.2984 22.1608 30.303C21.5526 30.5298 20.9337 30.6016 20.6066 31.8636C20.5724 31.9956 20.5349 32.1806 20.4963 32.4023C20.3064 33.4923 20.086 35.5188 20.0515 37.0718Z" fill="#E0E0E0"/>
</g>
<defs>
<clipPath id="clip0_501_4730">
<rect width="53" height="53" fill="white"/>
</clipPath>
</defs>
</svg>
