<svg width="53" height="53" viewBox="0 0 53 53" fill="none" xmlns="http://www.w3.org/2000/svg">
<path d="M47.2543 22.0547H38.3483H15.1925H6.28642L3.03125 47.8823H50.0277L47.2543 22.0547Z" fill="white"/>
<path d="M47.2529 22.0546L50.0263 47.8822H3.02984L6.28501 22.0546H15.1911H38.3468H47.2529M49.6531 19.3828H47.2529H38.3468H15.1911H6.28501H3.92847L3.63368 21.7207L0.378508 47.5482L0 50.554H3.02984H50.0263H53L52.6821 47.5972L49.9087 21.7696L49.6531 19.3828Z" fill="#131313"/>
<path d="M12.1871 44.3183C11.9583 44.3183 11.7303 44.304 11.5023 44.2764C11.3081 44.2533 11.1122 44.2167 10.9207 44.166C10.4442 44.0431 10.1583 43.5568 10.2812 43.0812C10.4042 42.6047 10.8895 42.3153 11.366 42.4418C11.4836 42.4712 11.6011 42.4943 11.7187 42.5086C12.0776 42.5531 12.441 42.5415 12.8008 42.4952C13.2924 42.4373 13.735 42.7793 13.7956 43.2674C13.857 43.7554 13.5115 44.2007 13.0234 44.2622C12.7447 44.2987 12.4641 44.3183 12.1871 44.3183ZM16.3285 43.287C15.9713 43.287 15.6347 43.0705 15.4975 42.717C15.3203 42.2574 15.5492 41.7417 16.007 41.5654C16.5342 41.3615 17.065 41.1352 17.5869 40.8894C18.0349 40.6801 18.563 40.8725 18.7714 41.3169C18.9798 41.7622 18.7892 42.293 18.3439 42.5014C17.7846 42.7642 17.2137 43.0073 16.6491 43.2255C16.544 43.2682 16.4353 43.287 16.3285 43.287ZM8.89458 41.7444C8.44304 41.7444 8.05651 41.4024 8.00931 40.9447C7.9915 40.7692 7.98438 40.5929 7.98438 40.4174C7.98438 40.3141 7.98705 40.2108 7.99239 40.1084C8.01287 39.6907 8.08056 39.2694 8.19278 38.8562C8.32102 38.3797 8.81353 38.0965 9.28466 38.2292C9.75935 38.3574 10.0408 38.8455 9.91165 39.3211C9.83327 39.6114 9.78607 39.9062 9.77271 40.1965C9.76915 40.2696 9.76648 40.3435 9.76648 40.4174C9.76648 40.5323 9.77093 40.649 9.7834 40.7639C9.83327 41.2537 9.47614 41.6901 8.9872 41.7409C8.95514 41.7426 8.92486 41.7444 8.89458 41.7444ZM21.0772 40.8547C20.786 40.8547 20.5001 40.7122 20.3291 40.4495C20.061 40.0362 20.1786 39.485 20.5909 39.2169C21.0674 38.9078 21.5403 38.5756 21.9981 38.231C22.3935 37.9353 22.9492 38.0163 23.2458 38.4055C23.5415 38.7983 23.4631 39.3567 23.0713 39.6533C22.5796 40.0229 22.072 40.3791 21.5617 40.7113C21.4112 40.8084 21.2437 40.8547 21.0772 40.8547ZM25.3156 37.604C25.0404 37.604 24.7696 37.4766 24.5942 37.238C24.3047 36.8407 24.392 36.2832 24.7901 35.9938C24.9763 35.8593 25.166 35.7266 25.361 35.601C25.6968 35.3828 26.0566 35.1762 26.4297 34.9883C26.8715 34.7683 27.4049 34.9455 27.6258 35.3837C27.8467 35.8228 27.6695 36.3589 27.2304 36.5798C26.9151 36.7383 26.6132 36.9111 26.3309 37.0937C26.1634 37.2032 25.9996 37.3163 25.8393 37.4339C25.6807 37.5488 25.4973 37.604 25.3156 37.604ZM11.1051 37.1827C10.7889 37.1827 10.4825 37.0144 10.3213 36.7169C10.0862 36.285 10.2474 35.7444 10.6794 35.5102C11.1407 35.2599 11.6332 35.1041 12.1435 35.0471C12.4018 35.0177 12.6716 35.0186 12.937 35.0542C13.4242 35.1183 13.768 35.5654 13.703 36.0534C13.6388 36.5397 13.2033 36.8826 12.7037 36.8194C12.5852 36.8033 12.4623 36.8033 12.3421 36.8176C12.0607 36.8479 11.7873 36.9351 11.529 37.075C11.3936 37.148 11.2484 37.1827 11.1051 37.1827ZM30.1943 35.5333C29.7829 35.5333 29.4133 35.2474 29.3242 34.8289C29.2218 34.347 29.5282 33.8741 30.0091 33.7717C30.5817 33.6488 31.198 33.5473 31.8419 33.4671C32.3345 33.395 32.7744 33.7521 32.835 34.2411C32.8955 34.7291 32.5491 35.1744 32.061 35.2341C31.4688 35.308 30.9032 35.4015 30.3814 35.5128C30.3181 35.5271 30.2558 35.5333 30.1943 35.5333ZM35.5023 34.9838C35.0276 34.9838 34.6322 34.6089 34.6135 34.1297C34.5939 33.6381 34.9751 33.2231 35.4667 33.2035L37.2417 33.1305C37.7315 33.0859 38.1501 33.4876 38.1724 33.9801C38.1946 34.4708 37.8144 34.8876 37.3227 34.9099L35.5397 34.9829C35.5282 34.9838 35.5148 34.9838 35.5023 34.9838ZM40.8273 34.5893C40.4131 34.5893 40.0427 34.2998 39.9554 33.8786C39.8565 33.3968 40.1656 32.9256 40.6474 32.8259C41.1621 32.7199 41.5433 32.5712 41.847 32.3583C42.2362 32.0546 42.8285 32.1045 43.1277 32.491C43.4296 32.8802 43.3913 33.4164 43.003 33.7183C42.954 33.7557 42.9051 33.7922 42.8525 33.8269C42.368 34.1689 41.758 34.4156 41.0072 34.5706C40.9475 34.5831 40.8861 34.5893 40.8273 34.5893ZM44.4512 31.0001C44.3639 31.0001 44.2757 30.9868 44.1875 30.9601C43.7182 30.8149 43.4546 30.3153 43.6006 29.8459C43.6478 29.6936 43.6772 29.5422 43.687 29.3953L43.6906 29.292C43.6906 29.088 43.6514 28.8805 43.5748 28.6739C43.4038 28.2125 43.638 27.7004 44.1003 27.5294C44.558 27.3593 45.0746 27.5927 45.2447 28.0549C45.3952 28.4601 45.4718 28.8769 45.4718 29.2928C45.4718 29.3677 45.4691 29.4416 45.4647 29.5155C45.4451 29.8041 45.3899 30.0908 45.3017 30.374C45.1841 30.7552 44.8314 31.0001 44.4512 31.0001ZM39.9447 27.3424C39.5564 27.3424 39.1992 27.0868 39.0888 26.6932C38.9552 26.2203 39.2295 25.7278 39.7033 25.595C40.3971 25.3991 41.1256 25.3403 41.8283 25.4347C42.3155 25.5006 42.6575 25.9486 42.5916 26.4367C42.5266 26.9238 42.0875 27.2658 41.5896 27.1999C41.1256 27.1385 40.6474 27.1794 40.1869 27.3077C40.1059 27.3317 40.0257 27.3424 39.9447 27.3424Z" fill="#EBBA16"/>
<path d="M35.877 10.6871L35.877 10.6869C35.6499 8.95381 35.0896 7.02453 33.7481 5.53234C32.4222 4.05741 30.2748 2.94531 26.7346 2.94531C23.1948 2.94531 21.0474 4.0574 19.7214 5.53235C18.3798 7.02455 17.8193 8.95382 17.5922 10.6869L35.877 10.6871ZM35.877 10.6871C36.1247 12.5724 35.9874 14.4979 35.5896 16.3806L35.5896 16.3807M35.877 10.6871L35.5896 16.3807M35.5896 16.3807C33.426 26.6367 28.1437 32.8621 26.7346 34.378C25.3255 32.8621 20.0432 26.6367 17.8796 16.3808M35.5896 16.3807L17.8796 16.3808M17.8796 16.3808C17.4827 14.498 17.3454 12.5724 17.5922 10.6869L17.8796 16.3808ZM20.5828 11.8644C20.5828 15.2621 23.3369 18.0162 26.7346 18.0162C30.1323 18.0162 32.8864 15.2621 32.8864 11.8644C32.8864 8.46749 30.1323 5.71347 26.7346 5.71347C23.337 5.71347 20.5828 8.46655 20.5828 11.8644Z" fill="#E4FF00" stroke="#131313"/>
<path d="M26.7377 5.32812C23.1299 5.32812 20.1953 8.26267 20.1953 11.8696C20.1953 15.4775 23.1299 18.412 26.7377 18.412C30.3456 18.412 33.2801 15.4775 33.2801 11.8696C33.2792 8.26267 30.3447 5.32812 26.7377 5.32812ZM26.7377 16.6308C24.1131 16.6308 21.9765 14.4951 21.9765 11.8696C21.9765 9.24412 24.1122 7.10934 26.7377 7.10934C29.3632 7.10934 31.4989 9.24412 31.4989 11.8696C31.4989 14.4951 29.3623 16.6308 26.7377 16.6308Z" fill="#131313"/>
</svg>
