<svg width="48" height="48" viewBox="0 0 48 48" fill="none" xmlns="http://www.w3.org/2000/svg">
<circle cx="24" cy="24" r="24" fill="#E4FF00"/>
<path d="M36.8203 34.1791V19.0703H33.0506V34.1791H29.5244V24.8159H25.7547V34.1791H22.2282V22.4751H18.4586V34.1791H14.9324V27.2783H11.1627V34.1791H9.15625V36.6415H38.8267V34.1791H36.8203Z" fill="#131313"/>
<path d="M34.9326 11.3516C33.8079 11.3516 32.8958 12.2636 32.8958 13.3884C32.8958 13.6316 32.9567 13.8748 33.0173 14.118L28.7614 17.4924C28.427 17.2795 28.0318 17.1277 27.6062 17.1277C26.907 17.1277 26.3294 17.4621 25.9647 17.9789L22.347 16.8236C22.347 15.6989 21.435 14.7868 20.3102 14.7868C19.1855 14.7868 18.2734 15.6989 18.2734 16.8236C18.2734 17.006 18.3038 17.2189 18.3646 17.3707L14.3214 20.046C13.9567 19.7724 13.5311 19.5901 13.0446 19.5901C11.9199 19.5901 11.0078 20.5021 11.0078 21.6269C11.0078 22.7516 11.9199 23.6637 13.0446 23.6637C14.1694 23.6637 15.0814 22.7516 15.0814 21.6269C15.0814 21.4445 15.0511 21.2316 14.9902 21.0798L19.0638 18.4045C19.4285 18.6781 19.8541 18.8604 20.3406 18.8604C21.0397 18.8604 21.6174 18.526 21.9821 18.0092L25.5997 19.134V19.1643C25.5997 20.289 26.5118 21.2011 27.6365 21.2011C28.7613 21.2011 29.6733 20.289 29.6733 19.1643C29.6733 18.9211 29.6125 18.6778 29.5518 18.4346L33.8077 15.0602C34.1421 15.2731 34.5374 15.425 34.963 15.425C36.0877 15.425 36.9998 14.5129 36.9998 13.3882C36.9694 12.2636 36.0574 11.3516 34.9327 11.3516L34.9326 11.3516Z" fill="#131313"/>
</svg>
