<svg width="48" height="48" viewBox="0 0 48 48" fill="none" xmlns="http://www.w3.org/2000/svg">
<circle cx="24" cy="24" r="24" fill="#E4FF00"/>
<path fill-rule="evenodd" clip-rule="evenodd" d="M22.1503 15.3125H20.7477C20.2064 15.3125 19.7672 15.7548 19.7672 16.2994V17.8662C14.0976 19.5687 9.96098 24.8451 9.96098 31.1039C8.87855 31.1039 8 31.9882 8 33.0779V37.0257C8 38.1154 8.87855 38.9997 9.96098 38.9997H37.4177C38.5001 38.9997 39.3787 38.1154 39.3787 37.0257V33.0779C39.3787 31.9882 38.5001 31.1039 37.4177 31.1039C37.4177 29.1344 37.0077 27.2622 36.2696 25.5679C35.313 25.9729 34.2824 26.2351 33.2034 26.3284C33.9976 27.8747 34.4746 29.556 34.4759 31.1039H12.9027C12.9053 27.5368 15.4355 23.2614 18.5509 21.5607L19.6406 26.5738C19.7102 26.8953 20.032 27.1559 20.359 27.1562H20.9925C21.3986 27.1562 21.728 26.8247 21.728 26.416V18.2737H22.3489C22.1992 17.5736 22.1204 16.8475 22.1204 16.1025C22.1204 15.8368 22.1304 15.5735 22.1501 15.3128L22.1503 15.3125ZM27.9931 25.3998C27.1416 24.9977 26.3541 24.4806 25.6507 23.8683V26.4155C25.6507 26.8242 25.9801 27.1558 26.3859 27.1558H27.0197C27.3465 27.1555 27.6682 26.8948 27.7381 26.5734L27.9931 25.3998ZM10.9417 36.0387H36.4364V34.0647H10.9417V36.0387Z" fill="#131313"/>
<path fill-rule="evenodd" clip-rule="evenodd" d="M32.318 23.2122C36.2174 23.2122 39.3782 20.0306 39.3782 16.1061C39.3782 12.1814 36.2174 9 32.318 9C28.4189 9 25.2578 12.1814 25.2578 16.1061C25.2578 20.0306 28.4189 23.2122 32.318 23.2122V23.2122ZM31.5337 16.1061L34.6714 12.9478L36.2405 14.5268L31.5337 19.2642L28.3958 16.1061L29.9646 14.5268L31.5337 16.1061Z" fill="#131313"/>
</svg>
