<svg width="48" height="48" viewBox="0 0 48 48" fill="none" xmlns="http://www.w3.org/2000/svg">
<circle cx="24" cy="24" r="24" fill="#E4FF00"/>
<path d="M29.5923 20.5312C29.1383 20.5312 28.7812 20.885 28.7812 21.339C28.7812 21.7909 29.1383 22.1467 29.5923 22.1467C30.044 22.1467 30.3992 21.7911 30.3992 21.339C30.3994 20.885 30.044 20.5312 29.5923 20.5312Z" fill="#131313"/>
<path d="M12.6679 13.3908C11.4772 13.3908 10.5906 14.3005 10.5781 15.4708V29.165C10.5781 30.5123 11.53 31.2461 12.6679 31.2461H21.2092L20.3758 33.5859H19.274C18.5494 33.5403 18.5494 34.6536 19.274 34.6063H28.6985C29.4234 34.6536 29.4234 33.5403 28.6985 33.5859H27.5973L26.7634 31.2461H32.193L30.7822 28.8004C29.0966 29.0801 27.3656 28.7006 25.9831 27.7363H13.6542C13.3624 27.7522 13.1162 27.5194 13.1162 27.2259C13.1162 26.9341 13.3624 26.7017 13.6542 26.7172H24.8479C24.5894 26.4203 24.3539 26.098 24.1501 25.7447C23.1176 23.9552 23.0523 21.869 23.7803 20.0854L23.1138 19.8337C22.7972 20.4406 22.164 20.8588 21.4373 20.8588C20.9763 20.8588 20.552 20.69 20.2216 20.4122L18.8178 21.6016C18.9743 21.8762 19.0644 22.1907 19.0644 22.5264C19.0644 23.5644 18.2109 24.4217 17.1714 24.4217C16.1313 24.4217 15.2767 23.5644 15.2767 22.5264C15.2767 21.4871 16.1317 20.6334 17.1714 20.6334C17.4808 20.6334 17.773 20.7108 18.0317 20.8446L19.6203 19.4989C19.5691 19.3284 19.5409 19.1486 19.5409 18.9622C19.5409 17.9229 20.3983 17.0709 21.4376 17.0709C22.4101 17.0709 23.2214 17.8184 23.32 18.7685L24.2456 19.1008C24.2558 19.1047 24.2632 19.1095 24.2736 19.1129C24.8116 18.2462 25.5612 17.4946 26.5042 16.9513C27.4631 16.397 28.5134 16.1223 29.5512 16.096C31.8346 16.0379 34.0811 17.1989 35.299 19.3082C36.6744 21.6907 36.2857 24.5651 34.6306 26.5787L34.7097 26.7159H37.3943L37.3945 15.4706C37.3945 14.1385 36.4642 13.4614 35.3043 13.3906L12.6679 13.3908Z" fill="#131313"/>
<path d="M21.4363 18.1562C20.9821 18.1562 20.625 18.5123 20.625 18.964C20.625 19.418 20.9821 19.7734 21.4363 19.7734C21.8882 19.7734 22.244 19.418 22.244 18.964C22.2438 18.5119 21.8886 18.1562 21.4363 18.1562Z" fill="#131313"/>
<path d="M29.613 18.4779C28.9625 18.4958 28.3099 18.6733 27.7009 19.025C27.3088 19.2502 26.971 19.5316 26.6875 19.8499C26.6928 19.852 26.7004 19.8537 26.7051 19.8552L28.023 20.2774C28.2868 19.8853 28.6969 19.5897 29.1927 19.4822C29.3193 19.4559 29.4461 19.4417 29.5714 19.44V19.4417C30.2256 19.4364 30.8323 19.7757 31.1809 20.3162L32.4827 19.8745C32.5164 19.8603 32.6148 19.8128 32.69 19.7812C31.8895 18.909 30.7599 18.4482 29.6129 18.4779L29.613 18.4779Z" fill="#131313"/>
<path d="M33.3398 20.7266C33.3296 20.7304 33.3205 20.7353 33.3101 20.7391L31.4859 21.3602C31.4721 22.2222 30.8648 22.9998 29.9888 23.186C28.9718 23.4042 27.9605 22.7483 27.7418 21.7327C27.7121 21.5919 27.6998 21.4535 27.7013 21.3159L26.0617 20.8054C25.5199 21.9579 25.5358 23.3442 26.2288 24.5423C27.3529 26.49 29.7969 27.1442 31.7443 26.0201C33.6162 24.9401 34.2917 22.6338 33.34 20.7266L33.3398 20.7266Z" fill="#131313"/>
<path d="M17.1688 21.7188C16.7148 21.7188 16.3594 22.072 16.3594 22.5256C16.3594 22.9779 16.7148 23.335 17.1688 23.335C17.6204 23.335 17.9765 22.9777 17.9765 22.5256C17.9763 22.0722 17.6207 21.7188 17.1688 21.7188V21.7188Z" fill="#131313"/>
<path d="M35.2969 27.7344L36.8589 30.4404C37.1812 30.0513 37.3848 29.5835 37.3922 29.1632V27.7349L35.2969 27.7347L35.2969 27.7344Z" fill="#131313"/>
<path d="M29.5984 17.7995C31.2752 17.7551 32.9198 18.6072 33.8189 20.1653C35.1281 22.4315 34.3539 25.315 32.0865 26.6221C29.8207 27.9309 26.9387 27.1588 25.6319 24.893C24.3227 22.6268 25.0931 19.7435 27.3597 18.4346C28.068 18.0247 28.8369 17.8205 29.5985 17.7995L29.5984 17.7995ZM29.5687 16.7841C28.6412 16.8085 27.7073 17.0571 26.8489 17.5512C24.1045 19.1356 23.1613 22.6599 24.7449 25.4041C26.0645 27.6881 28.726 28.7188 31.1642 28.0887L34.0002 33.0024C34.1972 33.3436 34.5683 33.502 34.9116 33.5254C35.253 33.5464 35.5997 33.4543 35.9229 33.2679C36.2486 33.0794 36.5018 32.8247 36.6549 32.5166C36.8063 32.2108 36.8542 31.8092 36.657 31.4683L33.821 26.5545C35.5838 24.7565 36.0202 21.9381 34.7023 19.6543C33.6134 17.7664 31.608 16.7322 29.567 16.783L29.5684 16.7835L29.5687 16.7841Z" fill="#131313"/>
</svg>
