<svg width="48" height="48" viewBox="0 0 48 48" fill="none" xmlns="http://www.w3.org/2000/svg">
<circle cx="24" cy="24" r="24" fill="#E4FF00"/>
<g clip-path="url(#clip0_501_4816)">
<path d="M36.7812 24.9039L34.6992 22.2342C34.598 22.1151 34.4722 22.0195 34.3306 21.9539C34.189 21.8883 34.0348 21.8544 33.8789 21.8544C33.7229 21.8544 33.5688 21.8883 33.4271 21.9539C33.2855 22.0195 33.1598 22.1151 33.0585 22.2342L30.9765 24.9039C30.8924 25.012 30.8303 25.1357 30.7938 25.2679C30.7573 25.4001 30.7471 25.5382 30.7638 25.6743C30.7805 25.8105 30.8237 25.942 30.891 26.0614C30.9584 26.1808 31.0485 26.2857 31.1562 26.3701C31.2639 26.4545 31.3872 26.5168 31.5189 26.5535C31.6506 26.5901 31.7882 26.6003 31.9239 26.5836C32.0595 26.5668 32.1906 26.5234 32.3095 26.4559C32.4285 26.3883 32.533 26.2979 32.6171 26.1898L32.6914 26.0917C32.3334 28.1733 31.2879 30.0734 29.7232 31.4862C28.1585 32.899 26.1656 33.7422 24.0653 33.8802C21.965 34.0182 19.8796 33.4429 18.1447 32.2468C16.4098 31.0508 15.1264 29.3037 14.5012 27.2868C13.8759 25.2698 13.9451 23.1004 14.6977 21.1277C15.4502 19.1551 16.8423 17.4939 18.6499 16.4117C20.4574 15.3295 22.5753 14.8893 24.6625 15.1618C26.7497 15.4343 28.6847 16.4038 30.1562 17.9141C30.353 18.0948 30.6112 18.1929 30.8778 18.1884C31.1444 18.1838 31.3992 18.077 31.5898 17.8897C31.7803 17.7025 31.8922 17.4492 31.9023 17.1818C31.9125 16.9143 31.8202 16.6532 31.6445 16.4519C29.825 14.5854 27.427 13.3955 24.8445 13.0777C22.262 12.76 19.6486 13.3332 17.4337 14.7032C15.2188 16.0733 13.5341 18.1587 12.6564 20.6168C11.7787 23.0749 11.7602 25.7595 12.604 28.2295C13.4478 30.6995 15.1037 32.808 17.2995 34.2087C19.4954 35.6093 22.1006 36.2187 24.6873 35.9367C27.2739 35.6547 29.688 34.4982 31.533 32.6571C33.378 30.816 34.5441 28.3998 34.8398 25.8056L35.1406 26.1976C35.3105 26.4159 35.5599 26.5576 35.8338 26.5914C36.1078 26.6252 36.384 26.5484 36.6015 26.3779C36.8191 26.2074 36.9602 25.9571 36.9939 25.6822C37.0276 25.4072 36.9511 25.1301 36.7812 24.9118V24.9039Z" fill="#131313"/>
<path d="M23.461 17.1875C23.1858 17.1885 22.9221 17.2987 22.7274 17.4941C22.5328 17.6894 22.423 17.954 22.422 18.2303V24.5027C22.4208 24.5848 22.4313 24.6666 22.4532 24.7457C22.4688 24.8228 22.4965 24.8969 22.5352 24.9652C22.5621 25.034 22.6004 25.0976 22.6485 25.1534C22.6485 25.1534 22.672 25.1848 22.6798 25.1926C22.7235 25.2443 22.7733 25.2904 22.8282 25.3298L22.8712 25.3612L24.504 26.5961L27.004 28.4778C27.1834 28.615 27.4034 28.6882 27.629 28.6855C27.8472 28.6847 28.0597 28.6152 28.2365 28.4868C28.4133 28.3584 28.5455 28.1776 28.6146 27.9698C28.6836 27.7621 28.6859 27.5378 28.6212 27.3286C28.5565 27.1194 28.4281 26.9359 28.254 26.8038L27.922 26.5529L26.586 25.5494L25.2032 24.5027L24.504 23.9813V18.2303C24.503 17.9534 24.3926 17.6881 24.1971 17.4927C24.0017 17.2972 23.737 17.1875 23.461 17.1875V17.1875Z" fill="#131313"/>
</g>
<defs>
<clipPath id="clip0_501_4816">
<rect width="25" height="23" fill="white" transform="translate(12 13)"/>
</clipPath>
</defs>
</svg>
