<svg width="53" height="53" viewBox="0 0 53 53" fill="none" xmlns="http://www.w3.org/2000/svg">
<path d="M11.87 43.614C11.7299 43.614 11.5911 43.6415 11.4617 43.6951C11.3322 43.7487 11.2146 43.8272 11.1155 43.9263C11.0165 44.0254 10.9379 44.143 10.8843 44.2725C10.8307 44.4019 10.8032 44.5406 10.8032 44.6807C10.8033 44.9625 10.7197 45.238 10.5632 45.4723C10.4067 45.7066 10.1842 45.8892 9.92386 45.997C9.66354 46.1049 9.37708 46.1331 9.10072 46.0782C8.82435 46.0232 8.57049 45.8876 8.37123 45.6883C8.17197 45.4891 8.03626 45.2353 7.98127 44.9589C7.92628 44.6825 7.95447 44.3961 8.06228 44.1357C8.17009 43.8754 8.35268 43.6529 8.58696 43.4963C8.82124 43.3398 9.09668 43.2562 9.37846 43.2562C9.6614 43.2562 9.93275 43.1438 10.1328 42.9437C10.3329 42.7436 10.4453 42.4723 10.4453 42.1893V39.0407C10.4425 38.7596 10.3289 38.4909 10.1291 38.2931C9.92939 38.0953 9.65963 37.9844 9.37851 37.9844C9.09739 37.9844 8.82763 38.0953 8.62787 38.2931C8.42811 38.4909 8.3145 38.7596 8.31173 39.0407V41.2862C7.68431 41.4833 7.12381 41.8506 6.69247 42.347C6.26113 42.8435 5.97583 43.4498 5.86825 44.0986C5.76066 44.7475 5.835 45.4134 6.08301 46.0225C6.33102 46.6316 6.74299 47.1601 7.27319 47.5493C7.80339 47.9384 8.43106 48.173 9.08652 48.227C9.74198 48.2809 10.3996 48.1522 10.9863 47.855C11.573 47.5579 12.0659 47.1039 12.4102 46.5436C12.7545 45.9832 12.9368 45.3384 12.9368 44.6807C12.9368 44.3978 12.8244 44.1265 12.6243 43.9265C12.4242 43.7264 12.1529 43.614 11.87 43.614V43.614Z" fill="#E4FF00"/>
<path d="M9.37871 37.9766C9.23865 37.9766 9.09996 38.0042 8.97057 38.0578C8.84118 38.1114 8.72362 38.19 8.6246 38.289C8.52559 38.3881 8.44706 38.5057 8.39351 38.6351C8.33996 38.7645 8.31243 38.9032 8.3125 39.0433V41.0101H10.4461V39.0433C10.4461 38.9031 10.4186 38.7643 10.3649 38.6348C10.3113 38.5054 10.2327 38.3877 10.1336 38.2886C10.0344 38.1896 9.91673 38.111 9.7872 38.0574C9.65768 38.0039 9.51887 37.9764 9.37871 37.9766V37.9766Z" fill="#D37231"/>
<path d="M10.5859 33.6032V24.1094H8.16792V33.6032H10.5859Z" fill="#131313"/>
<path d="M12.2145 34.9222C12.1869 34.5629 12.0247 34.2273 11.7603 33.9824C11.496 33.7376 11.1489 33.6015 10.7885 33.6016H7.96958C7.60925 33.6016 7.26222 33.7377 6.99786 33.9825C6.7335 34.2274 6.57129 34.563 6.54365 34.9222L6.17969 39.6542H12.5786L12.2145 34.9222Z" fill="#FC7963"/>
<path d="M10.5899 24.1094H8.17188V26.5039H10.5899V24.1094Z" fill="#7998B2"/>
<path d="M18.4688 18.3547V21.3594H21.2119V18.3547H18.4688Z" fill="#D83030"/>
<path d="M12.1953 18.3547V21.3594H14.9385V18.3547H12.1953Z" fill="#D83030"/>
<path d="M30.1458 4.19725L47.875 17.9375L49.3562 16.0263L31.6271 2.28601L30.1458 4.19725Z" fill="#131313"/>
<path d="M10.4745 18.0929L31.6719 4.64844L30.3768 2.6065L9.17944 16.0509L10.4745 18.0929Z" fill="#131313"/>
<path d="M42.3812 21.365H6.47621L8.42748 18.3604H42.3812V15.6172H7.68237C7.45379 15.6172 7.22883 15.6743 7.02794 15.7834C6.82705 15.8925 6.65661 16.05 6.53211 16.2417L2.79944 21.9894C2.66498 22.1964 2.58889 22.4359 2.57918 22.6826C2.56948 22.9292 2.62654 23.174 2.74432 23.3909C2.86211 23.6079 3.03626 23.789 3.24841 23.9152C3.46056 24.0414 3.70284 24.1081 3.9497 24.1081H42.3812V21.365Z" fill="#FC7963"/>
<path d="M42.3828 15.6172H48.3713C48.9135 15.6172 49.4335 15.8326 49.8169 16.216C50.2003 16.5994 50.4157 17.1194 50.4157 17.6616V26.5027H42.3829V15.6172H42.3828Z" fill="#E4FF00"/>
<path d="M29.1953 48.1006V27.8438H26.4521V48.1006H29.1953Z" fill="#FC7963"/>
<path d="M35.0078 48.1006V27.8438H32.2646V48.1006H35.0078Z" fill="#FC7963"/>
<path d="M29.1926 35.8906H32.2656V33.1475H29.1926V35.8906Z" fill="#D83030"/>
<path d="M29.1926 42.7969H32.2656V40.0537H29.1926V42.7969Z" fill="#D83030"/>
<path d="M38.1797 50.8438H23.2838V49.6045C23.2838 49.2056 23.4422 48.8231 23.7243 48.5411C24.0063 48.259 24.3888 48.1006 24.7877 48.1006H36.6754C36.8729 48.1005 37.0685 48.1394 37.251 48.2149C37.4335 48.2905 37.5994 48.4013 37.7391 48.5409C37.8788 48.6806 37.9896 48.8464 38.0652 49.0289C38.1408 49.2113 38.1797 49.4069 38.1797 49.6045V50.8438Z" fill="#D83030"/>
<path d="M32.5547 3.52783V15.6146H29.8115V3.52783C29.8115 3.16407 29.956 2.8152 30.2133 2.55798C30.4705 2.30075 30.8193 2.15625 31.1831 2.15625V2.15625C31.5469 2.15625 31.8957 2.30075 32.153 2.55798C32.4102 2.8152 32.5547 3.16407 32.5547 3.52783V3.52783Z" fill="#FC7963"/>
<path d="M29.1963 27.8438H26.4531V30.4616H29.1963V27.8438Z" fill="#D83030"/>
<path d="M35.0088 27.8438H32.2656V30.4616H35.0088V27.8438Z" fill="#D83030"/>
<path d="M34.1657 15.6172H26.7138C25.9047 15.6174 25.1187 15.8872 24.4802 16.384C23.8416 16.8808 23.3867 17.5762 23.1875 18.3604H42.3855V15.6172H34.1657Z" fill="#D83030"/>
<path d="M33.4871 21.3594H23.0781V24.1025H33.4871H34.168H42.3873V21.3594H34.168H33.4871Z" fill="#D83030"/>
<path d="M36.2216 15.6172V27.8466H25.2344V19.6378C25.2344 19.1099 25.3383 18.5871 25.5404 18.0994C25.7424 17.6116 26.0385 17.1684 26.4118 16.7951C26.7851 16.4218 27.2283 16.1257 27.716 15.9236C28.2038 15.7216 28.7266 15.6176 29.2545 15.6176L36.2216 15.6172Z" fill="#E4FF00"/>
<path d="M31.9343 18.4375V22.9123H27.9141V20.534C27.9141 19.978 28.1349 19.4447 28.5281 19.0516C28.9213 18.6584 29.4545 18.4375 30.0106 18.4375H31.9343Z" fill="#425968"/>
</svg>
