<svg width="58" height="58" viewBox="0 0 58 58" fill="none" xmlns="http://www.w3.org/2000/svg">
<path d="M9.96875 45.3125L2.71875 55.2812H23.5625L25.375 50.75H32.625L34.4375 55.2812H55.2812L48.0312 45.3125H9.96875Z" fill="#E4FF00"/>
<path d="M35.3438 18.8319V17.4181L33.3772 16.7656C33.2958 16.4995 33.1896 16.2416 33.06 15.9953L33.9844 14.1375L32.9875 13.1406L31.1297 14.065C30.8834 13.9354 30.6255 13.8292 30.3594 13.7478L29.7069 11.7812H28.2931L27.6406 13.7478C27.5472 13.773 27.4563 13.8063 27.3688 13.8475C27.1972 13.9068 27.0305 13.9795 26.8703 14.065L25.0125 13.1406L24.0156 14.1375L24.94 15.9953C24.8104 16.2416 24.7042 16.4995 24.6228 16.7656L22.6562 17.4181V18.8319L24.6228 19.4844C24.7042 19.7505 24.8104 20.0084 24.94 20.2547L24.0156 22.1125L25.0125 23.1094L26.8703 22.185C27.1166 22.3146 27.3745 22.4208 27.6406 22.5022L28.2931 24.4688H29.7069L30.3594 22.5022C30.6255 22.4208 30.8834 22.3146 31.1297 22.185L32.9875 23.1094L33.9844 22.1125L33.06 20.2547C33.1896 20.0084 33.2958 19.7505 33.3772 19.4844L35.3438 18.8319ZM29 19.9375C28.6415 19.9375 28.2911 19.8312 27.993 19.632C27.695 19.4329 27.4627 19.1498 27.3255 18.8186C27.1883 18.4874 27.1524 18.123 27.2223 17.7714C27.2923 17.4198 27.4649 17.0969 27.7184 16.8434C27.9719 16.5899 28.2948 16.4173 28.6464 16.3473C28.998 16.2774 29.3624 16.3133 29.6936 16.4505C30.0248 16.5877 30.3079 16.82 30.507 17.118C30.7062 17.4161 30.8125 17.7665 30.8125 18.125C30.8111 18.6053 30.6196 19.0654 30.28 19.405C29.9404 19.7446 29.4803 19.9361 29 19.9375Z" fill="#E4FF00"/>
<path d="M16.3125 9.76937V8.35563L15.7687 8.17438H15.7597L14.3459 7.70312C14.2646 7.43698 14.1584 7.17908 14.0287 6.93281L14.9531 5.075L13.9562 4.07812L12.0984 5.0025C11.8522 4.87287 11.5943 4.76667 11.3281 4.68531L10.6756 2.71875H9.26188L8.60938 4.68531C8.34323 4.76667 8.08533 4.87287 7.83906 5.0025L5.98125 4.07812L4.98438 5.075L5.90875 6.93281C5.77912 7.17908 5.67292 7.43698 5.59156 7.70312L3.625 8.35563V9.76937L5.59156 10.4219C5.67292 10.688 5.77912 10.9459 5.90875 11.1922L4.98438 13.05L5.48281 13.5484L5.98125 14.0469L7.83906 13.1225C8.08533 13.2521 8.34323 13.3583 8.60938 13.4397L9.26188 15.4062H10.6756L11.3281 13.4397C11.5943 13.3583 11.8522 13.2521 12.0984 13.1225L13.9562 14.0469L14.9531 13.05L14.0287 11.1922C14.1584 10.9459 14.2646 10.688 14.3459 10.4219L16.3125 9.76937ZM9.96875 10.875C9.61027 10.875 9.25984 10.7687 8.96178 10.5695C8.66372 10.3704 8.4314 10.0873 8.29422 9.75611C8.15703 9.42492 8.12114 9.06049 8.19108 8.7089C8.26101 8.35731 8.43364 8.03435 8.68712 7.78087C8.9406 7.52739 9.26356 7.35476 9.61515 7.28483C9.96674 7.21489 10.3312 7.25078 10.6624 7.38797C10.9936 7.52515 11.2766 7.75747 11.4758 8.05553C11.6749 8.35359 11.7812 8.70402 11.7812 9.0625C11.7798 9.54276 11.5884 10.0029 11.2488 10.3425C10.9092 10.6821 10.449 10.8736 9.96875 10.875V10.875Z" fill="#E4FF00"/>
<path d="M5.0025 35.6609L4.07812 37.5188L5.075 38.5156L6.93281 37.5912C7.17908 37.7209 7.43698 37.8271 7.70312 37.9084L8.35563 39.875H9.76937L9.96875 39.2769L10.4219 37.9084C10.688 37.8271 10.9459 37.7209 11.1922 37.5912L13.05 38.5156L14.0469 37.5188L13.1225 35.6609C13.234 35.4602 13.3221 35.2473 13.3853 35.0266H13.3944C13.4125 34.9813 13.4216 34.9359 13.4397 34.8906L15.4062 34.2381V32.8244L13.4397 32.1719C13.3583 31.9057 13.2521 31.6478 13.1225 31.4016L14.0469 29.5437L13.05 28.5469L11.1922 29.4713C10.9459 29.3416 10.688 29.2354 10.4219 29.1541L9.96875 27.7856L9.76937 27.1875H8.35563L7.70312 29.1541C7.43698 29.2354 7.17908 29.3416 6.93281 29.4713L5.075 28.5469L4.73969 28.8822L4.07812 29.5437L5.0025 31.4016C4.87287 31.6478 4.76667 31.9057 4.68531 32.1719L2.71875 32.8244V34.2381L4.68531 34.8906C4.76667 35.1568 4.87287 35.4147 5.0025 35.6609V35.6609ZM9.0625 31.7188C9.42098 31.7188 9.77141 31.825 10.0695 32.0242C10.3675 32.2234 10.5998 32.5064 10.737 32.8376C10.8742 33.1688 10.9101 33.5333 10.8402 33.8849C10.7702 34.2364 10.5976 34.5594 10.3441 34.8129C10.0906 35.0664 9.76769 35.239 9.4161 35.3089C9.06451 35.3789 8.70008 35.343 8.36889 35.2058C8.0377 35.0686 7.75462 34.8363 7.55546 34.5382C7.3563 34.2402 7.25 33.8897 7.25 33.5312C7.25143 33.051 7.44285 32.5908 7.78245 32.2512C8.12205 31.9116 8.58224 31.7202 9.0625 31.7188V31.7188Z" fill="#E4FF00"/>
<path d="M44.4062 23.5625H46.2188V20.8438C46.2188 20.6034 46.1233 20.3729 45.9533 20.2029C45.7834 20.033 45.5529 19.9375 45.3125 19.9375H42.5938V21.75H44.4062V23.5625Z" fill="#131313"/>
<path d="M46.2188 24.4688H44.4062V26.2812H46.2188V24.4688Z" fill="#131313"/>
<path d="M41.6875 19.9375H39.875V21.75H41.6875V19.9375Z" fill="#131313"/>
<path d="M56.1875 1.8125H47.125V3.625H56.1875V1.8125Z" fill="#131313"/>
<path d="M51.6562 4.53125H47.125V6.34375H51.6562V4.53125Z" fill="#131313"/>
<path d="M56.1875 4.53125H52.5625V6.34375H56.1875V4.53125Z" fill="#131313"/>
<path d="M56.1875 7.25H47.125V9.0625H56.1875V7.25Z" fill="#131313"/>
<path d="M52.5625 14.5V9.96875H50.75V13.5938H37.1562V15.4062H51.6562C51.8966 15.4062 52.1271 15.3108 52.2971 15.1408C52.467 14.9709 52.5625 14.7404 52.5625 14.5Z" fill="#131313"/>
<path d="M9.96875 11.7813C10.5065 11.7813 11.0321 11.6218 11.4792 11.3231C11.9263 11.0243 12.2748 10.5997 12.4805 10.1029C12.6863 9.60613 12.7402 9.05949 12.6353 8.5321C12.5304 8.00471 12.2714 7.52028 11.8912 7.14005C11.511 6.75983 11.0265 6.50089 10.4992 6.39599C9.97177 6.29109 9.42512 6.34493 8.92833 6.5507C8.43154 6.75648 8.00693 7.10495 7.70819 7.55204C7.40945 7.99914 7.25 8.52478 7.25 9.0625C7.25 9.78356 7.53644 10.4751 8.0463 10.9849C8.55617 11.4948 9.24769 11.7813 9.96875 11.7813ZM9.96875 8.15625C10.148 8.15625 10.3232 8.2094 10.4722 8.30898C10.6213 8.40856 10.7374 8.5501 10.806 8.71569C10.8746 8.88129 10.8926 9.06351 10.8576 9.2393C10.8226 9.4151 10.7363 9.57658 10.6096 9.70332C10.4828 9.83006 10.3213 9.91637 10.1456 9.95134C9.96976 9.98631 9.78754 9.96836 9.62194 9.89977C9.45635 9.83118 9.31481 9.71502 9.21523 9.56599C9.11565 9.41695 9.0625 9.24174 9.0625 9.0625C9.0625 8.82215 9.15798 8.59164 9.32793 8.42169C9.49789 8.25173 9.7284 8.15625 9.96875 8.15625V8.15625Z" fill="#131313"/>
<path d="M3.33863 10.6267L4.89375 11.1469L4.90825 11.1804L4.17691 12.6458C4.0922 12.8159 4.06307 13.0082 4.09365 13.1957C4.12422 13.3832 4.21294 13.5564 4.34728 13.6907L5.34416 14.6876C5.47849 14.8219 5.65164 14.9107 5.83914 14.9412C6.02665 14.9718 6.21902 14.9427 6.38906 14.858L7.85447 14.1266L7.88438 14.1375L8.40094 15.6899C8.46107 15.8704 8.57649 16.0275 8.73086 16.1387C8.88522 16.25 9.07069 16.3098 9.26097 16.3098H10.6711C10.8614 16.3098 11.0468 16.25 11.2012 16.1387C11.3556 16.0275 11.471 15.8704 11.5311 15.6899L12.0531 14.1375L12.0876 14.123L13.553 14.8543C13.723 14.9391 13.9154 14.9682 14.1029 14.9376C14.2904 14.907 14.4635 14.8183 14.5979 14.684L15.5948 13.6871C15.7291 13.5528 15.8178 13.3796 15.8484 13.1921C15.879 13.0046 15.8498 12.8122 15.7651 12.6422L15.0338 11.1768L15.0438 11.1469L16.5962 10.6285C16.7775 10.5687 16.9353 10.4532 17.0471 10.2985C17.1589 10.1437 17.219 9.95758 17.2188 9.76666V8.35835C17.2188 8.16807 17.1589 7.9826 17.0477 7.82823C16.9364 7.67387 16.7794 7.55844 16.5989 7.49831L15.0438 6.97813L15.0293 6.9446L15.7606 5.47919C15.8453 5.30914 15.8744 5.11677 15.8439 4.92927C15.8133 4.74177 15.7246 4.56862 15.5902 4.43428L14.5933 3.43741C14.459 3.30307 14.2859 3.21435 14.0984 3.18377C13.9109 3.1532 13.7185 3.18233 13.5484 3.26703L12.083 3.99838L12.0531 3.9875L11.5366 2.4351C11.4768 2.25362 11.3611 2.09568 11.2062 1.98387C11.0512 1.87205 10.8649 1.81207 10.6738 1.8125H9.26369C9.07341 1.81246 8.88794 1.87231 8.73358 1.98356C8.57921 2.09482 8.46379 2.25185 8.40366 2.43238L7.88438 3.9875L7.84994 4.002L6.38725 3.26794C6.21773 3.18428 6.02629 3.15573 5.83974 3.18628C5.65319 3.21683 5.48086 3.30496 5.34688 3.43831L4.35 4.43519C4.21566 4.56952 4.12694 4.74267 4.09637 4.93018C4.06579 5.11768 4.09492 5.31005 4.17963 5.4801L4.91097 6.9455L4.89375 6.97813L3.34134 7.4965C3.16001 7.55626 3.00219 7.67176 2.89038 7.82653C2.77858 7.9813 2.71851 8.16742 2.71875 8.35835V9.76666C2.7187 9.95694 2.77855 10.1424 2.88981 10.2968C3.00107 10.4511 3.1581 10.5666 3.33863 10.6267V10.6267ZM4.53125 9.01085L5.87794 8.55772C6.01337 8.51295 6.13632 8.43684 6.23679 8.33558C6.33726 8.23432 6.41241 8.11078 6.45613 7.975C6.52381 7.76032 6.61087 7.55224 6.71622 7.35331C6.78228 7.22627 6.8173 7.08538 6.81841 6.94219C6.81951 6.799 6.78666 6.65758 6.72256 6.52953L6.08728 5.25625L6.1625 5.18103L7.43669 5.81541C7.5645 5.87921 7.70559 5.91189 7.84843 5.91079C7.99128 5.90969 8.13184 5.87483 8.25866 5.80906C8.45825 5.70447 8.66657 5.61745 8.88125 5.54897C9.0176 5.50584 9.14181 5.43105 9.24372 5.33071C9.34563 5.23038 9.42234 5.10735 9.46759 4.97169L9.91709 3.625H10.0204L10.469 4.97169C10.5143 5.10735 10.591 5.23038 10.6929 5.33071C10.7948 5.43105 10.919 5.50584 11.0553 5.54897C11.2707 5.61764 11.4796 5.70497 11.6798 5.80997C11.8066 5.87574 11.9471 5.91059 12.09 5.91169C12.2328 5.9128 12.3739 5.88012 12.5017 5.81631L13.7759 5.18194L13.8502 5.25716L13.2158 6.53044C13.1517 6.65849 13.1189 6.7999 13.12 6.94309C13.1211 7.08628 13.1561 7.22718 13.2222 7.35422C13.3275 7.55314 13.4146 7.76123 13.4823 7.97591C13.5255 8.11236 13.6004 8.23663 13.7009 8.33854C13.8014 8.44046 13.9246 8.51712 14.0605 8.56225L15.4072 9.01538V9.11869L14.0605 9.57182C13.9246 9.61695 13.8014 9.69361 13.7009 9.79552C13.6004 9.89744 13.5255 10.0217 13.4823 10.1582C13.4146 10.3728 13.3275 10.5809 13.2222 10.7798C13.1561 10.9069 13.1211 11.0478 13.12 11.191C13.1189 11.3342 13.1517 11.4756 13.2158 11.6036L13.8502 12.8724L13.7759 12.9476L12.5017 12.3132C12.3739 12.2494 12.2328 12.2167 12.09 12.2178C11.9471 12.2189 11.8066 12.2538 11.6798 12.3196C11.4796 12.4246 11.2707 12.5119 11.0553 12.5806C10.919 12.6237 10.7948 12.6985 10.6929 12.7988C10.591 12.8992 10.5143 13.0222 10.469 13.1578L10.0204 14.5H9.91709L9.4685 13.1533C9.42325 13.0177 9.34653 12.8946 9.24462 12.7943C9.14271 12.694 9.01851 12.6192 8.88216 12.576C8.66682 12.5074 8.4579 12.42 8.25775 12.315C8.13094 12.2493 7.99037 12.2144 7.84753 12.2133C7.70468 12.2122 7.56359 12.2449 7.43578 12.3087L6.16159 12.9431L6.08728 12.8688L6.72166 11.6C6.78576 11.472 6.8186 11.3305 6.8175 11.1873C6.8164 11.0442 6.78138 10.9033 6.71531 10.7762C6.60996 10.5773 6.52291 10.3692 6.45522 10.1545C6.412 10.0181 6.33707 9.89381 6.23657 9.7919C6.13607 9.68998 6.01286 9.61332 5.87703 9.56819L4.53125 9.11416V9.01085Z" fill="#131313"/>
<path d="M29 20.8438C29.5377 20.8438 30.0634 20.6843 30.5105 20.3856C30.9576 20.0868 31.306 19.6622 31.5118 19.1654C31.7176 18.6686 31.7714 18.122 31.6665 17.5946C31.5616 17.0672 31.3027 16.5828 30.9224 16.2026C30.5422 15.8223 30.0578 15.5634 29.5304 15.4585C29.003 15.3536 28.4564 15.4074 27.9596 15.6132C27.4628 15.819 27.0382 16.1674 26.7394 16.6145C26.4407 17.0616 26.2812 17.5873 26.2812 18.125C26.2813 18.8461 26.5677 19.5376 27.0776 20.0474C27.5874 20.5573 28.2789 20.8438 29 20.8438ZM29 17.2188C29.1792 17.2188 29.3545 17.2719 29.5035 17.3715C29.6525 17.4711 29.7687 17.6126 29.8373 17.7782C29.9059 17.9438 29.9238 18.126 29.8888 18.3018C29.8539 18.4776 29.7676 18.6391 29.6408 18.7658C29.5141 18.8926 29.3526 18.9789 29.1768 19.0138C29.001 19.0488 28.8188 19.0309 28.6532 18.9623C28.4876 18.8937 28.3461 18.7775 28.2465 18.6285C28.1469 18.4795 28.0938 18.3042 28.0938 18.125C28.0938 17.8846 28.1892 17.6541 28.3592 17.4842C28.5291 17.3142 28.7596 17.2188 29 17.2188Z" fill="#131313"/>
<path d="M11.7813 33.5313C11.7813 32.9935 11.6218 32.4679 11.3231 32.0208C11.0243 31.5737 10.5997 31.2252 10.1029 31.0195C9.60613 30.8137 9.05949 30.7598 8.5321 30.8647C8.00471 30.9696 7.52028 31.2286 7.14005 31.6088C6.75983 31.989 6.50089 32.4735 6.39599 33.0009C6.29109 33.5282 6.34493 34.0749 6.5507 34.5717C6.75648 35.0685 7.10495 35.4931 7.55204 35.7918C7.99914 36.0905 8.52478 36.25 9.0625 36.25C9.78356 36.25 10.4751 35.9636 10.9849 35.4537C11.4948 34.9438 11.7813 34.2523 11.7813 33.5313ZM9.0625 34.4375C8.88326 34.4375 8.70805 34.3844 8.55902 34.2848C8.40998 34.1852 8.29383 34.0437 8.22524 33.8781C8.15664 33.7125 8.1387 33.5302 8.17366 33.3544C8.20863 33.1787 8.29494 33.0172 8.42169 32.8904C8.54843 32.7637 8.70991 32.6774 8.8857 32.6424C9.0615 32.6074 9.24371 32.6254 9.40931 32.694C9.5749 32.7626 9.71644 32.8787 9.81602 33.0278C9.9156 33.1768 9.96875 33.352 9.96875 33.5313C9.96875 33.7716 9.87327 34.0021 9.70332 34.1721C9.53336 34.342 9.30285 34.4375 9.0625 34.4375Z" fill="#131313"/>
<path d="M48.9376 45.0209V19.0342C48.9376 18.5535 48.7467 18.0925 48.4068 17.7525C48.0669 17.4126 47.6058 17.2217 47.1251 17.2217H36.2184C36.1846 17.071 36.1128 16.9314 36.0098 16.8163C35.9069 16.7011 35.7762 16.6142 35.6303 16.5637L34.0751 16.0435L34.0606 16.01L34.792 14.5446C34.8767 14.3746 34.9058 14.1822 34.8752 13.9947C34.8447 13.8072 34.7559 13.634 34.6216 13.4997L33.6247 12.5028C33.4904 12.3685 33.3172 12.2798 33.1297 12.2492C32.9422 12.2186 32.7499 12.2477 32.5798 12.3325L31.1144 13.0638L31.0845 13.0529L30.5679 11.5005C30.5081 11.319 30.3925 11.1611 30.2375 11.0493C30.0826 10.9375 29.8963 10.8775 29.7052 10.8779H28.2951C28.1048 10.8779 27.9193 10.9377 27.765 11.049C27.6106 11.1602 27.4952 11.3173 27.435 11.4978L27.203 12.1956C25.173 9.87069 22.4525 8.25621 19.4392 7.58824C19.2042 7.54151 18.9602 7.58695 18.7577 7.71517C18.5553 7.84338 18.4099 8.04454 18.3517 8.27699C18.3266 8.39357 18.3247 8.51397 18.3462 8.63128C18.3676 8.74859 18.4121 8.86051 18.4769 8.96061C18.5417 9.06072 18.6257 9.14704 18.7239 9.21464C18.8222 9.28223 18.9328 9.32977 19.0495 9.35452C21.1681 9.82978 23.1292 10.8408 24.7453 12.2908C24.6059 12.3303 24.4783 12.4034 24.3737 12.5037L23.3768 13.5006C23.2425 13.6349 23.1538 13.8081 23.1232 13.9956C23.0926 14.1831 23.1218 14.3755 23.2065 14.5455L23.9378 16.0109L23.9251 16.0435L22.3727 16.5619C22.2267 16.6124 22.0961 16.6993 21.9931 16.8145C21.8902 16.9296 21.8184 17.0692 21.7846 17.2199H10.8751C10.3944 17.2199 9.93341 17.4108 9.5935 17.7507C9.25359 18.0906 9.06263 18.5517 9.06263 19.0324V26.2824H8.35756C8.16728 26.2823 7.98182 26.3422 7.82745 26.4534C7.67309 26.5647 7.55766 26.7217 7.49753 26.9022L6.97825 28.4592L6.94381 28.4737L5.47841 27.7423C5.35299 27.6833 5.2155 27.6545 5.07694 27.658C3.75747 25.1443 3.31964 22.2604 3.83356 19.4683C3.85401 19.3504 3.85092 19.2297 3.82448 19.113C3.79804 18.9964 3.74877 18.8861 3.6795 18.7886C3.61337 18.6903 3.52777 18.6066 3.42801 18.5427C3.32825 18.4788 3.21645 18.436 3.0995 18.417C2.86406 18.3746 2.62142 18.4271 2.42449 18.5629C2.22756 18.6987 2.09231 18.9069 2.04825 19.142C1.89219 20.0036 1.81333 20.8773 1.81263 21.7529C1.81283 24.1939 2.4324 26.5948 3.61335 28.731L3.43844 28.906C3.3041 29.0403 3.21538 29.2134 3.1848 29.4009C3.15423 29.5884 3.18336 29.7808 3.26806 29.9509L3.99941 31.4163L3.98763 31.4498L2.43522 31.9682C2.25389 32.0279 2.09606 32.1434 1.98426 32.2982C1.87246 32.453 1.81239 32.6391 1.81263 32.83V34.2383C1.81258 34.4286 1.87243 34.6141 1.98369 34.7684C2.09495 34.9228 2.25197 35.0382 2.4325 35.0984L3.98763 35.6185L4.00213 35.6521L3.27078 37.1175C3.18608 37.2875 3.15695 37.4799 3.18752 37.6674C3.2181 37.8549 3.30682 38.0281 3.44116 38.1624L4.43803 39.1593C4.57236 39.2936 4.74552 39.3823 4.93302 39.4129C5.12052 39.4435 5.31289 39.4143 5.48294 39.3296L6.94835 38.5983L6.97825 38.6092L7.49481 40.1616C7.55462 40.3431 7.67026 40.501 7.82521 40.6128C7.98016 40.7246 8.16648 40.7846 8.35756 40.7842H9.06263V45.0209L1.98572 54.7513C1.88743 54.8865 1.82845 55.0463 1.81531 55.2129C1.80216 55.3796 1.83537 55.5466 1.91125 55.6955C1.98713 55.8445 2.10273 55.9696 2.24527 56.0569C2.3878 56.1442 2.55171 56.1904 2.71888 56.1904H55.2814C55.4485 56.1904 55.6125 56.1442 55.755 56.0569C55.8975 55.9696 56.0131 55.8445 56.089 55.6955C56.1649 55.5466 56.1981 55.3796 56.1849 55.2129C56.1718 55.0463 56.1128 54.8865 56.0145 54.7513L48.9376 45.0209ZM23.5626 18.0763L24.9093 17.6231C25.0451 17.578 25.1684 17.5013 25.2689 17.3994C25.3693 17.2975 25.4443 17.1732 25.4875 17.0368C25.5552 16.8221 25.6422 16.614 25.7476 16.4151C25.8137 16.2881 25.8487 16.1472 25.8498 16.004C25.8509 15.8608 25.818 15.7194 25.7539 15.5913L25.1196 14.3226L25.1939 14.2474L26.4681 14.8817C26.5959 14.9455 26.737 14.9782 26.8798 14.9771C27.0227 14.976 27.1632 14.9412 27.29 14.8754C27.4902 14.7704 27.6991 14.6831 27.9144 14.6144C28.0508 14.5713 28.175 14.4965 28.2769 14.3961C28.3788 14.2958 28.4555 14.1728 28.5008 14.0371L28.9539 12.6904H29.0572L29.5058 14.0371C29.5511 14.1728 29.6278 14.2958 29.7297 14.3961C29.8316 14.4965 29.9558 14.5713 30.0922 14.6144C30.3075 14.6831 30.5164 14.7704 30.7166 14.8754C30.8434 14.9412 30.9839 14.976 31.1268 14.9771C31.2696 14.9782 31.4107 14.9455 31.5385 14.8817L32.8127 14.2474L32.887 14.3226L32.2527 15.5913C32.1886 15.7194 32.1557 15.8608 32.1568 16.004C32.1579 16.1472 32.1929 16.2881 32.259 16.4151C32.3644 16.614 32.4514 16.8221 32.5191 17.0368C32.5623 17.1732 32.6373 17.2975 32.7377 17.3994C32.8382 17.5013 32.9615 17.578 33.0973 17.6231L34.444 18.0763V18.1796L33.0973 18.6327C32.9615 18.6778 32.8382 18.7545 32.7377 18.8564C32.6373 18.9583 32.5623 19.0826 32.5191 19.219C32.4514 19.4337 32.3644 19.6418 32.259 19.8407C32.1929 19.9678 32.1579 20.1087 32.1568 20.2519C32.1557 20.3951 32.1886 20.5365 32.2527 20.6645L32.887 21.9333L32.8127 22.0085L31.5385 21.3741C31.4107 21.3103 31.2696 21.2776 31.1268 21.2787C30.9839 21.2798 30.8434 21.3147 30.7166 21.3805C30.5164 21.4855 30.3075 21.5728 30.0922 21.6415C29.9558 21.6846 29.8316 21.7594 29.7297 21.8597C29.6278 21.96 29.5511 22.0831 29.5058 22.2187L29.0518 23.5654H28.9485L28.4953 22.2187C28.4501 22.0831 28.3734 21.96 28.2715 21.8597C28.1696 21.7594 28.0454 21.6846 27.909 21.6415C27.6937 21.5728 27.4847 21.4855 27.2846 21.3805C27.1578 21.3147 27.0172 21.2798 26.8744 21.2787C26.7315 21.2776 26.5904 21.3103 26.4626 21.3741L25.1884 22.0085L25.1141 21.9333L25.7485 20.6645C25.8126 20.5365 25.8454 20.3951 25.8443 20.2519C25.8432 20.1087 25.8082 19.9678 25.7422 19.8407C25.6368 19.6418 25.5498 19.4337 25.4821 19.219C25.4388 19.0826 25.3639 18.9583 25.2634 18.8564C25.1629 18.7545 25.0397 18.6778 24.9039 18.6327L23.5626 18.1796V18.0763ZM21.7818 19.0342C21.8157 19.1849 21.8875 19.3244 21.9904 19.4396C22.0934 19.5547 22.224 19.6417 22.37 19.6921L23.9251 20.2123L23.9396 20.2458L23.2083 21.7112C23.1236 21.8813 23.0944 22.0737 23.125 22.2612C23.1556 22.4487 23.2443 22.6218 23.3787 22.7561L24.3755 23.753C24.5099 23.8874 24.683 23.9761 24.8705 24.0067C25.058 24.0372 25.2504 24.0081 25.4204 23.9234L26.8858 23.192L26.9203 23.2065L27.4368 24.759C27.497 24.9395 27.6124 25.0965 27.7668 25.2078C27.9211 25.319 28.1066 25.3789 28.2969 25.3788H28.4781C27.6902 28.0144 26.0683 30.3231 23.8563 31.9582C23.7603 32.0289 23.6793 32.1179 23.6179 32.22C23.5564 32.3221 23.5156 32.4353 23.4979 32.5531C23.4803 32.671 23.486 32.7911 23.5148 32.9068C23.5437 33.0224 23.595 33.1312 23.6659 33.227C23.7521 33.3398 23.8632 33.4312 23.9906 33.4941C24.1179 33.557 24.258 33.5896 24.4 33.5895C24.5923 33.5923 24.7802 33.5318 24.9347 33.4173C27.7101 31.3615 29.6597 28.3818 30.432 25.0154C30.4895 24.9384 30.5344 24.8527 30.5652 24.7617L31.0845 23.2029L31.1189 23.1884L32.5843 23.9198C32.7542 24.0054 32.9468 24.0351 33.1345 24.0045C33.3222 23.9739 33.4954 23.8846 33.6293 23.7494L34.6261 22.7525C34.7605 22.6182 34.8492 22.445 34.8798 22.2575C34.9103 22.07 34.8812 21.8777 34.7965 21.7076L34.0652 20.2422L34.0751 20.2123L35.6275 19.6939C35.7742 19.6437 35.9056 19.5567 36.0091 19.4411C36.1125 19.3256 36.1846 19.1855 36.2184 19.0342H47.1251V44.4092H10.8751V39.4248L11.147 38.6164L11.1814 38.6019L12.6468 39.3333C12.8167 39.4188 13.0093 39.4484 13.197 39.4178C13.3847 39.3872 13.5579 39.298 13.6918 39.1629L14.6886 38.166C14.823 38.0317 14.9117 37.8585 14.9423 37.671C14.9728 37.4835 14.9437 37.2912 14.859 37.1211L14.1277 35.6557L14.1376 35.6185L15.69 35.1002C15.8714 35.0404 16.0292 34.9249 16.141 34.7701C16.2528 34.6154 16.3129 34.4293 16.3126 34.2383V32.83C16.3127 32.6397 16.2528 32.4543 16.1416 32.2999C16.0303 32.1455 15.8733 32.0301 15.6928 31.97L14.1376 31.4498L14.1231 31.4163L14.8545 29.9509C14.9392 29.7808 14.9683 29.5884 14.9377 29.4009C14.9072 29.2134 14.8184 29.0403 14.6841 28.906L13.6872 27.9091C13.5529 27.7747 13.3797 27.686 13.1922 27.6554C13.0047 27.6249 12.8124 27.654 12.6423 27.7387L11.1769 28.47L11.147 28.4592L10.8751 27.6508V19.0342H21.7818ZM8.56238 37.625C8.51712 37.4893 8.44041 37.3663 8.3385 37.266C8.23659 37.1656 8.11238 37.0908 7.97603 37.0477C7.7607 36.979 7.55177 36.8917 7.35163 36.7867C7.22481 36.7209 7.08425 36.6861 6.9414 36.685C6.79856 36.6839 6.65747 36.7166 6.52966 36.7804L5.25547 37.4147L5.18116 37.3404L5.81553 36.0671C5.87963 35.9391 5.91248 35.7977 5.91138 35.6545C5.91027 35.5113 5.87525 35.3704 5.80919 35.2434C5.70384 35.0444 5.61678 34.8364 5.5491 34.6217C5.50587 34.4852 5.43094 34.361 5.33044 34.259C5.22995 34.1571 5.10674 34.0805 4.97091 34.0353L3.62513 33.5858V33.4825L4.97181 33.0294C5.10764 32.9843 5.23085 32.9076 5.33135 32.8057C5.43185 32.7038 5.50678 32.5795 5.55 32.4431C5.61769 32.2284 5.70474 32.0203 5.8101 31.8214C5.87616 31.6943 5.91118 31.5534 5.91228 31.4102C5.91338 31.267 5.88054 31.1256 5.81644 30.9976L5.18206 29.7243L5.25638 29.6491L6.53056 30.2835C6.65838 30.3473 6.79946 30.3799 6.94231 30.3788C7.08516 30.3777 7.22572 30.3429 7.35253 30.2771C7.55268 30.1721 7.76161 30.0848 7.97694 30.0161C8.11329 29.973 8.2375 29.8982 8.33941 29.7979C8.44131 29.6975 8.51803 29.5745 8.56328 29.4388L9.01097 28.0967H9.11428L9.56288 29.4434C9.60813 29.579 9.68485 29.7021 9.78675 29.8024C9.88866 29.9027 10.0129 29.9775 10.1492 30.0206C10.3646 30.0893 10.5735 30.1766 10.7736 30.2816C10.9004 30.3474 11.041 30.3823 11.1839 30.3834C11.3267 30.3845 11.4678 30.3518 11.5956 30.288L12.8698 29.6536L12.9441 29.7288L12.3097 31.0021C12.2456 31.1302 12.2128 31.2716 12.2139 31.4148C12.215 31.558 12.25 31.6988 12.3161 31.8259C12.4214 32.0248 12.5085 32.2329 12.5762 32.4476C12.6194 32.584 12.6943 32.7083 12.7948 32.8102C12.8953 32.9121 13.0185 32.9888 13.1543 33.0339L14.501 33.4871V33.5904L13.1543 34.0435C13.0185 34.0886 12.8953 34.1653 12.7948 34.2672C12.6943 34.3691 12.6194 34.4934 12.5762 34.6298C12.5085 34.8445 12.4214 35.0526 12.3161 35.2515C12.25 35.3786 12.215 35.5195 12.2139 35.6626C12.2128 35.8058 12.2456 35.9473 12.3097 36.0753L12.9441 37.3486L12.8698 37.4238L11.5956 36.7894C11.4678 36.7256 11.3267 36.6929 11.1839 36.694C11.041 36.6951 10.9004 36.73 10.7736 36.7958C10.5735 36.9008 10.3646 36.9881 10.1492 37.0568C10.0129 37.0999 9.88866 37.1747 9.78675 37.275C9.68485 37.3754 9.60813 37.4984 9.56288 37.634L9.11428 38.9717H9.01097L8.56238 37.625ZM24.9012 54.3779L25.9887 51.6592H32.0116L33.0991 54.3779H24.9012ZM35.0512 54.3779L33.467 50.4167C33.3998 50.2484 33.2836 50.1041 33.1336 50.0025C32.9835 49.9009 32.8064 49.8466 32.6251 49.8467H25.3751C25.1939 49.8466 25.0168 49.9009 24.8667 50.0025C24.7166 50.1041 24.6005 50.2484 24.5332 50.4167L22.9491 54.3779H4.49875L10.4302 46.2217H47.5701L53.5015 54.3779H35.0512Z" fill="#131313"/>
<path d="M14.5 47.125H10.875V48.9375H14.5V47.125Z" fill="#131313"/>
<path d="M19.9375 47.125H16.3125V48.9375H19.9375V47.125Z" fill="#131313"/>
<path d="M25.375 47.125H21.75V48.9375H25.375V47.125Z" fill="#131313"/>
<path d="M11.7812 50.75H8.15625V52.5625H11.7812V50.75Z" fill="#131313"/>
<path d="M17.2188 50.75H13.5938V52.5625H17.2188V50.75Z" fill="#131313"/>
<path d="M22.6562 50.75H19.0312V52.5625H22.6562V50.75Z" fill="#131313"/>
<path d="M38.9688 50.75H35.3438V52.5625H38.9688V50.75Z" fill="#131313"/>
<path d="M44.4062 50.75H40.7812V52.5625H44.4062V50.75Z" fill="#131313"/>
<path d="M49.8438 50.75H46.2188V52.5625H49.8438V50.75Z" fill="#131313"/>
<path d="M30.8125 47.125H27.1875V48.9375H30.8125V47.125Z" fill="#131313"/>
<path d="M36.25 47.125H32.625V48.9375H36.25V47.125Z" fill="#131313"/>
<path d="M41.6875 47.125H38.0625V48.9375H41.6875V47.125Z" fill="#131313"/>
<path d="M47.125 47.125H43.5V48.9375H47.125V47.125Z" fill="#131313"/>
<path d="M46.2188 41.6875H44.4062V43.5H46.2188V41.6875Z" fill="#131313"/>
<path d="M43.5 41.6875H41.6875V43.5H43.5V41.6875Z" fill="#131313"/>
<path d="M46.2188 38.9688H44.4062V40.7812H46.2188V38.9688Z" fill="#131313"/>
<path d="M3.24449 15.4725C3.19013 15.5799 3.15809 15.6972 3.1503 15.8172C3.14252 15.9373 3.15914 16.0578 3.19917 16.1712C3.2804 16.3969 3.44613 16.5821 3.66136 16.6878C3.78365 16.7445 3.9163 16.7753 4.05105 16.7784C4.22336 16.7789 4.39229 16.7306 4.53825 16.639C4.68421 16.5474 4.80123 16.4163 4.87574 16.261C4.97846 16.0445 4.99131 15.7963 4.9115 15.5704C4.83168 15.3445 4.66568 15.1595 4.4498 15.0556C4.23421 14.9542 3.98752 14.9411 3.76235 15.0189C3.53718 15.0968 3.35135 15.2596 3.24449 15.4725Z" fill="#131313"/>
<path d="M33.5312 35.3438H24.4688V37.1562H33.5312V35.3438Z" fill="#131313"/>
<path d="M29 38.0625H24.4688V39.875H29V38.0625Z" fill="#131313"/>
<path d="M33.5312 38.0625H29.9062V39.875H33.5312V38.0625Z" fill="#131313"/>
<path d="M33.5312 40.7812H24.4688V42.5938H33.5312V40.7812Z" fill="#131313"/>
<path d="M42.5938 25.375H33.5312V27.1875H42.5938V25.375Z" fill="#131313"/>
<path d="M38.0625 28.0938H33.5312V29.9062H38.0625V28.0938Z" fill="#131313"/>
<path d="M42.5938 28.0938H38.9688V29.9062H42.5938V28.0938Z" fill="#131313"/>
<path d="M42.5938 30.8125H33.5312V32.625H42.5938V30.8125Z" fill="#131313"/>
<path d="M21.75 20.8438H15.4062V22.6562H21.75V20.8438Z" fill="#131313"/>
<path d="M18.125 23.5625H15.4062V25.375H18.125V23.5625Z" fill="#131313"/>
<path d="M21.75 23.5625H19.0312V25.375H21.75V23.5625Z" fill="#131313"/>
<path d="M21.75 26.2812H15.4062V28.0938H21.75V26.2812Z" fill="#131313"/>
<path d="M20.8438 35.3438C21.3443 35.3438 21.75 34.938 21.75 34.4375C21.75 33.937 21.3443 33.5312 20.8438 33.5312C20.3432 33.5312 19.9375 33.937 19.9375 34.4375C19.9375 34.938 20.3432 35.3438 20.8438 35.3438Z" fill="#131313"/>
</svg>
