<svg width="53" height="53" viewBox="0 0 53 53" fill="none" xmlns="http://www.w3.org/2000/svg">
<path d="M19.1906 39.7487V41.5762H33.8113V39.7487H49.3459V10.5073C49.3459 9.49756 48.528 8.67969 47.5183 8.67969H5.48382C4.47413 8.67969 3.65625 9.49756 3.65625 10.5073V39.7487H19.1906Z" fill="#131313"/>
<path d="M33.8104 39.75V41.5776H19.1896V39.75H0V42.4914C0 43.5011 0.817877 44.319 1.82757 44.319H51.1724C52.1821 44.319 53 43.5011 53 42.4914V39.75H33.8104Z" fill="#B0B6BB"/>
<path d="M5.48438 37.9216H47.5188V10.5078H5.48438V37.9216Z" fill="#546A79"/>
<path d="M7.3125 36.0924H12.7952V31.5234H7.3125V36.0924Z" fill="#DD691D"/>
<path d="M15.5391 36.0924H21.0218V31.5234H15.5391V36.0924Z" fill="#DD691D"/>
<path d="M23.7578 36.0924H29.2406V31.5234H23.7578V36.0924Z" fill="#DD691D"/>
<path d="M31.9844 36.0924H37.4671V31.5234H31.9844V36.0924Z" fill="#DD691D"/>
<path d="M40.2109 36.0924H45.6936V31.5234H40.2109V36.0924Z" fill="#DD691D"/>
<path d="M7.3125 31.5221H12.7952V26.9531H7.3125V31.5221Z" fill="#E4FF00"/>
<path d="M15.5391 31.5289H21.0218V23.3047H15.5391V31.5289Z" fill="#E4FF00"/>
<path d="M23.7578 31.5272H29.2406V17.8203H23.7578V31.5272Z" fill="#E4FF00"/>
<path d="M31.9844 31.5291H37.4671V24.2188H31.9844V31.5291Z" fill="#E4FF00"/>
<path d="M40.2109 31.5257H45.6936V12.3359H40.2109V31.5257Z" fill="#E4FF00"/>
<path d="M8.22654 20.5604C7.9926 20.5604 7.75865 20.4708 7.5805 20.2927C7.22317 19.9353 7.22317 19.3578 7.5805 19.0006L13.977 12.6039C14.3344 12.2466 14.9119 12.2466 15.2691 12.6039C15.6264 12.9613 15.6265 13.5388 15.2691 13.896L8.87258 20.2926C8.69443 20.4708 8.46049 20.5604 8.22654 20.5604Z" fill="#E4FF00"/>
<path d="M14.6248 18.7326C14.1194 18.7326 13.7109 18.3232 13.7109 17.8187V13.2498C13.7109 12.7453 14.1194 12.3359 14.6248 12.3359C15.1301 12.3359 15.5386 12.7453 15.5386 13.2498V17.8187C15.5386 18.3232 15.1301 18.7326 14.6248 18.7326Z" fill="#E4FF00"/>
<path d="M14.6234 14.1636H10.0545C9.5491 14.1636 9.14062 13.7542 9.14062 13.2498C9.14062 12.7453 9.5491 12.3359 10.0545 12.3359H14.6234C15.1288 12.3359 15.5373 12.7453 15.5373 13.2498C15.5373 13.7542 15.1288 14.1636 14.6234 14.1636Z" fill="#E4FF00"/>
</svg>
