<svg width="48" height="48" viewBox="0 0 48 48" fill="none" xmlns="http://www.w3.org/2000/svg">
<circle cx="24" cy="24" r="24" fill="#E4FF00"/>
<path d="M23.8594 37.7187C27.5353 37.7187 31.0604 36.2586 33.6595 33.6595C36.2586 31.0601 37.7188 27.5349 37.7188 23.8594C37.7188 20.1839 36.2586 16.6584 33.6595 14.0593C31.0601 11.4602 27.5349 10 23.8594 10C20.1839 10 16.6584 11.4602 14.0593 14.0593C11.4602 16.6587 10 20.1839 10 23.8594C10 26.2923 10.6405 28.6824 11.8568 30.7894C13.0732 32.8964 14.8228 34.646 16.9298 35.8624C19.0367 37.0787 21.4269 37.7192 23.8598 37.7192L23.8594 37.7187ZM25.5917 13.611C28.7522 14.1497 31.4885 16.1129 33.0112 18.934C32.7036 18.8389 32.3876 18.7434 32.0495 18.6612C29.9299 18.1715 27.7667 17.8944 25.5917 17.834V13.611ZM25.5917 21.2945C30.5078 21.5024 34.2541 22.5592 34.2541 23.8586C34.2541 25.158 30.5075 26.2149 25.5917 26.4227V21.2945ZM25.5917 29.8835C27.7667 29.823 29.9299 29.546 32.0495 29.0563C32.3873 28.9741 32.7036 28.8786 33.0112 28.7835C31.4885 31.6047 28.7522 33.5678 25.5917 34.1065V29.8835ZM22.1267 34.1065H22.127C18.9665 33.5679 16.2302 31.6046 14.7075 28.7835C15.015 28.8787 15.331 28.9741 15.6691 29.0563C17.7888 29.546 19.952 29.8231 22.127 29.8835L22.1267 34.1065ZM22.1267 13.6114V17.8345H22.127C19.952 17.8949 17.7888 18.172 15.6691 18.6617C15.3314 18.7439 15.0151 18.8394 14.7075 18.9345C16.2302 16.1133 18.9664 14.1502 22.127 13.6115L22.1267 13.6114ZM13.4643 23.8594C13.4643 22.5599 17.2108 21.5031 22.1267 21.2953V26.4235C17.2106 26.2157 13.4643 25.1588 13.4643 23.8595V23.8594Z" fill="#131313"/>
</svg>
