<svg width="323" height="33" viewBox="0 0 323 33" fill="none" xmlns="http://www.w3.org/2000/svg">
<path d="M0.832 2.176H14.528V4.544H8.128C7.616 4.544 7.296 4.928 7.296 5.376V31.168C7.296 31.616 7.616 32 8.128 32C8.576 32 8.96 31.616 8.96 31.168V6.272H15.36C15.872 6.272 16.256 5.888 16.256 5.376V1.344C16.256 0.895998 15.872 0.511999 15.36 0.511999H0.832C0.384 0.511999 0 0.895998 0 1.344C0 1.792 0.384 2.176 0.832 2.176ZM55.0405 31.168V1.344C55.0405 0.895998 54.6565 0.511999 54.1445 0.511999C53.6965 0.511999 53.3125 0.895998 53.3125 1.344V31.168C53.3125 31.616 53.6965 32 54.1445 32C54.6565 32 55.0405 31.616 55.0405 31.168ZM109.694 8.448C109.694 4.096 106.238 0.511999 102.014 0.511999H101.054H94.2695C93.8215 0.511999 93.4375 0.895998 93.4375 1.344V31.168C93.4375 31.616 93.8215 32 94.2695 32C94.7815 32 95.1655 31.616 95.1655 31.168V2.176H101.054H102.014C105.342 2.176 107.966 4.992 107.966 8.448V12.032C107.966 15.488 105.342 18.304 102.014 18.304H99.1335C98.6855 18.304 98.3015 18.688 98.3015 19.2C98.3015 19.648 98.6855 20.032 99.1335 20.032H102.014C106.238 20.032 109.694 16.448 109.694 12.032V8.448ZM147.646 22.208C147.198 22.208 146.814 22.592 146.75 23.04V23.68C146.686 24.96 146.942 26.24 147.454 27.392C148.67 30.08 151.23 31.872 154.11 31.936C156.542 32.064 158.654 31.616 160.446 30.016C161.982 28.544 162.878 26.496 163.006 24.32V23.68C163.134 19.264 159.87 15.552 155.646 15.424C150.846 14.976 148.926 11.584 148.99 8.192C149.054 6.464 149.758 4.864 151.038 3.712C152.126 2.688 153.598 2.112 156.094 2.24C158.206 2.304 160.126 3.584 161.15 5.504C161.342 5.952 161.854 6.08 162.302 5.888C162.686 5.696 162.878 5.184 162.622 4.736C161.406 2.24 158.91 0.639999 156.158 0.511999C153.214 0.383999 151.358 1.088 149.822 2.496C148.286 3.968 147.39 5.952 147.326 8.128C147.39 13.376 150.59 17.088 155.582 17.088C158.846 17.216 161.406 20.16 161.278 23.616V24.256C161.214 25.984 160.51 27.584 159.294 28.736C158.142 29.824 156.67 30.336 154.174 30.272C151.934 30.144 149.95 28.8 149.054 26.688C148.606 25.792 148.414 24.768 148.478 23.744V23.104C148.478 22.592 148.158 22.208 147.646 22.208ZM200.895 2.176H214.591V4.544H208.191C207.679 4.544 207.359 4.928 207.359 5.376V31.168C207.359 31.616 207.679 32 208.191 32C208.639 32 209.023 31.616 209.023 31.168V6.272H215.423C215.935 6.272 216.319 5.888 216.319 5.376V1.344C216.319 0.895998 215.935 0.511999 215.423 0.511999H200.895C200.447 0.511999 200.062 0.895998 200.062 1.344C200.062 1.792 200.447 2.176 200.895 2.176ZM254.207 15.616H262.527V17.536H254.271C253.823 17.536 253.439 17.92 253.439 18.432V31.168C253.439 31.616 253.823 32 254.271 32H268.735C269.247 32 269.631 31.616 269.631 31.168C269.631 30.656 269.247 30.272 268.735 30.272H255.167V19.264H263.423C263.871 19.264 264.255 18.88 264.255 18.432V14.72C264.255 14.272 263.871 13.888 263.423 13.888H255.103V2.176H268.735C269.247 2.176 269.631 1.792 269.631 1.344C269.631 0.895998 269.247 0.511999 268.735 0.511999H254.207C253.759 0.511999 253.375 0.895998 253.375 1.344V14.72C253.375 15.232 253.759 15.616 254.207 15.616ZM315.264 18.816C319.488 18.816 322.944 15.232 322.944 10.88V8.448C322.944 4.096 319.488 0.511999 315.264 0.511999H307.52C307.072 0.511999 306.688 0.895998 306.688 1.344V31.168C306.688 31.616 307.072 32 307.52 32C308.032 32 308.416 31.616 308.416 31.168V2.176H315.264C318.592 2.176 321.216 4.992 321.216 8.448V10.88C321.216 14.336 318.592 17.152 315.264 17.152H311.616C311.104 17.152 310.72 17.536 310.72 17.984V21.44C310.72 21.888 311.104 22.272 311.616 22.272H317.44C319.552 22.272 321.216 24.064 321.216 26.304V31.168C321.216 31.616 321.6 32 322.048 32C322.56 32 322.944 31.616 322.944 31.168V26.304C322.944 23.168 320.448 20.608 317.44 20.608H312.448V18.816H315.264Z" fill="white"/>
</svg>
