<svg width="360" height="64" viewBox="0 0 360 64" fill="none" xmlns="http://www.w3.org/2000/svg">
<path d="M0.832 18.176H14.528V20.544H8.128C7.616 20.544 7.296 20.928 7.296 21.376V47.168C7.296 47.616 7.616 48 8.128 48C8.576 48 8.96 47.616 8.96 47.168V22.272H15.36C15.872 22.272 16.256 21.888 16.256 21.376V17.344C16.256 16.896 15.872 16.512 15.36 16.512H0.832C0.384 16.512 0 16.896 0 17.344C0 17.792 0.384 18.176 0.832 18.176ZM55.0405 47.168V17.344C55.0405 16.896 54.6565 16.512 54.1445 16.512C53.6965 16.512 53.3125 16.896 53.3125 17.344V47.168C53.3125 47.616 53.6965 48 54.1445 48C54.6565 48 55.0405 47.616 55.0405 47.168ZM109.694 24.448C109.694 20.096 106.238 16.512 102.014 16.512H101.054H94.2695C93.8215 16.512 93.4375 16.896 93.4375 17.344V47.168C93.4375 47.616 93.8215 48 94.2695 48C94.7815 48 95.1655 47.616 95.1655 47.168V18.176H101.054H102.014C105.342 18.176 107.966 20.992 107.966 24.448V28.032C107.966 31.488 105.342 34.304 102.014 34.304H99.1335C98.6855 34.304 98.3015 34.688 98.3015 35.2C98.3015 35.648 98.6855 36.032 99.1335 36.032H102.014C106.238 36.032 109.694 32.448 109.694 28.032V24.448ZM147.646 38.208C147.198 38.208 146.814 38.592 146.75 39.04V39.68C146.686 40.96 146.942 42.24 147.454 43.392C148.67 46.08 151.23 47.872 154.11 47.936C156.542 48.064 158.654 47.616 160.446 46.016C161.982 44.544 162.878 42.496 163.006 40.32V39.68C163.134 35.264 159.87 31.552 155.646 31.424C150.846 30.976 148.926 27.584 148.99 24.192C149.054 22.464 149.758 20.864 151.038 19.712C152.126 18.688 153.598 18.112 156.094 18.24C158.206 18.304 160.126 19.584 161.15 21.504C161.342 21.952 161.854 22.08 162.302 21.888C162.686 21.696 162.878 21.184 162.622 20.736C161.406 18.24 158.91 16.64 156.158 16.512C153.214 16.384 151.358 17.088 149.822 18.496C148.286 19.968 147.39 21.952 147.326 24.128C147.39 29.376 150.59 33.088 155.582 33.088C158.846 33.216 161.406 36.16 161.278 39.616V40.256C161.214 41.984 160.51 43.584 159.294 44.736C158.142 45.824 156.67 46.336 154.174 46.272C151.934 46.144 149.95 44.8 149.054 42.688C148.606 41.792 148.414 40.768 148.478 39.744V39.104C148.478 38.592 148.158 38.208 147.646 38.208ZM200.895 18.176H214.591V20.544H208.191C207.679 20.544 207.359 20.928 207.359 21.376V47.168C207.359 47.616 207.679 48 208.191 48C208.639 48 209.023 47.616 209.023 47.168V22.272H215.423C215.935 22.272 216.319 21.888 216.319 21.376V17.344C216.319 16.896 215.935 16.512 215.423 16.512H200.895C200.447 16.512 200.062 16.896 200.062 17.344C200.062 17.792 200.447 18.176 200.895 18.176ZM254.207 31.616H262.527V33.536H254.271C253.823 33.536 253.439 33.92 253.439 34.432V47.168C253.439 47.616 253.823 48 254.271 48H268.735C269.247 48 269.631 47.616 269.631 47.168C269.631 46.656 269.247 46.272 268.735 46.272H255.167V35.264H263.423C263.871 35.264 264.255 34.88 264.255 34.432V30.72C264.255 30.272 263.871 29.888 263.423 29.888H255.103V18.176H268.735C269.247 18.176 269.631 17.792 269.631 17.344C269.631 16.896 269.247 16.512 268.735 16.512H254.207C253.759 16.512 253.375 16.896 253.375 17.344V30.72C253.375 31.232 253.759 31.616 254.207 31.616ZM315.264 34.816C319.488 34.816 322.944 31.232 322.944 26.88V24.448C322.944 20.096 319.488 16.512 315.264 16.512H307.52C307.072 16.512 306.688 16.896 306.688 17.344V47.168C306.688 47.616 307.072 48 307.52 48C308.032 48 308.416 47.616 308.416 47.168V18.176H315.264C318.592 18.176 321.216 20.992 321.216 24.448V26.88C321.216 30.336 318.592 33.152 315.264 33.152H311.616C311.104 33.152 310.72 33.536 310.72 33.984V37.44C310.72 37.888 311.104 38.272 311.616 38.272H317.44C319.552 38.272 321.216 40.064 321.216 42.304V47.168C321.216 47.616 321.6 48 322.048 48C322.56 48 322.944 47.616 322.944 47.168V42.304C322.944 39.168 320.448 36.608 317.44 36.608H312.448V34.816H315.264Z" fill="white"/>
</svg>
